<svg width="256" height="226" viewBox="0 0 256 226" fill="none" xmlns="http://www.w3.org/2000/svg">
<path d="M250.082 208.359H229.993V208.511H250.082V208.359Z" fill="#EBEBEB"/>
<path d="M178.101 210.008H172.829V210.159H178.101V210.008Z" fill="#EBEBEB"/>
<path d="M229.386 202.727H217.746V202.878H229.386V202.727Z" fill="#EBEBEB"/>
<path d="M35.2297 203.742H9.0332V203.894H35.2297V203.742Z" fill="#EBEBEB"/>
<path d="M44.4708 203.742H40.6299V203.894H44.4708V203.742Z" fill="#EBEBEB"/>
<path d="M113.769 206.309H56.9541V206.46H113.769V206.309Z" fill="#EBEBEB"/>
<path d="M120.966 171.547H3.85154C1.94289 171.547 0.389648 169.994 0.389648 168.085V3.4619C0.389648 1.55324 1.94289 0 3.85154 0H120.966C122.874 0 124.427 1.55324 124.427 3.4619V168.085C124.427 169.994 122.874 171.547 120.966 171.547ZM3.85154 0.152231C2.02598 0.152231 0.541273 1.63694 0.541273 3.4625V168.086C0.541273 169.911 2.02598 171.396 3.85154 171.396H120.966C122.791 171.396 124.276 169.911 124.276 168.086V3.4619C124.276 1.63694 122.791 0.151625 120.966 0.151625L3.85154 0.152231Z" fill="#EBEBEB"/>
<path d="M252.149 171.547H135.036C133.127 171.547 131.574 169.994 131.574 168.085V3.4619C131.574 1.55324 133.127 0 135.036 0H252.149C254.059 0 255.611 1.55324 255.611 3.4619V168.085C255.612 169.994 254.059 171.547 252.149 171.547ZM135.036 0.152231C133.211 0.152231 131.726 1.63694 131.726 3.4625V168.086C131.726 169.911 133.211 171.396 135.036 171.396H252.149C253.975 171.396 255.46 169.911 255.46 168.086V3.4619C255.46 1.63694 253.975 0.151625 252.149 0.151625L135.036 0.152231Z" fill="#EBEBEB"/>
<path d="M194.956 110.73H181.433V116.484H194.956V110.73Z" fill="#FAFAFA"/>
<path d="M178.592 110.73H165.068V116.484H178.592V110.73Z" fill="#FAFAFA"/>
<path d="M162.227 110.73H148.704V116.484H162.227V110.73Z" fill="#FAFAFA"/>
<path d="M203.138 118.742H189.614V124.495H203.138V118.742Z" fill="#FAFAFA"/>
<path d="M186.773 118.742H173.25V124.495H186.773V118.742Z" fill="#FAFAFA"/>
<path d="M170.409 118.742H156.886V124.495H170.409V118.742Z" fill="#FAFAFA"/>
<path d="M154.045 118.742H140.521V124.495H154.045V118.742Z" fill="#FAFAFA"/>
<path d="M229.516 126.75H215.993V132.503H229.516V126.75Z" fill="#FAFAFA"/>
<path d="M213.153 126.75H199.629V132.503H213.153V126.75Z" fill="#FAFAFA"/>
<path d="M178.592 126.75H165.068V132.503H178.592V126.75Z" fill="#FAFAFA"/>
<path d="M162.227 126.75H148.704V132.503H162.227V126.75Z" fill="#FAFAFA"/>
<path d="M145.863 126.75H132.34V132.503H145.863V126.75Z" fill="#FAFAFA"/>
<path d="M221.334 134.762H207.811V140.515H221.334V134.762Z" fill="#FAFAFA"/>
<path d="M186.773 134.762H173.25V140.515H186.773V134.762Z" fill="#FAFAFA"/>
<path d="M170.409 134.762H156.886V140.515H170.409V134.762Z" fill="#FAFAFA"/>
<path d="M154.045 134.762H140.521V140.515H154.045V134.762Z" fill="#FAFAFA"/>
<path d="M90.2141 29.125H76.6904V34.8782H90.2141V29.125Z" fill="#FAFAFA"/>
<path d="M73.8509 29.125H60.3271V34.8782H73.8509V29.125Z" fill="#FAFAFA"/>
<path d="M98.3952 37.1367H84.8721V42.89H98.3952V37.1367Z" fill="#FAFAFA"/>
<path d="M82.0319 37.1367H68.5088V42.89H82.0319V37.1367Z" fill="#FAFAFA"/>
<path d="M49.3034 37.1367H35.7803V42.89H49.3034V37.1367Z" fill="#FAFAFA"/>
<path d="M32.9391 37.1367H19.416V42.89H32.9391V37.1367Z" fill="#FAFAFA"/>
<path d="M73.8509 45.1445H60.3271V50.8978H73.8509V45.1445Z" fill="#FAFAFA"/>
<path d="M222.816 76.0117H209.292V81.765H222.816V76.0117Z" fill="#FAFAFA"/>
<path d="M194.321 76.0117H180.797V81.765H194.321V76.0117Z" fill="#FAFAFA"/>
<path d="M230.997 84.0156H217.474V89.7689H230.997V84.0156Z" fill="#FAFAFA"/>
<path d="M214.632 84.0156H201.109V89.7689H214.632V84.0156Z" fill="#FAFAFA"/>
<path d="M75.0052 67.9297H61.4814V73.6829H75.0052V67.9297Z" fill="#FAFAFA"/>
<path d="M40.4417 67.9297H26.918V73.6829H40.4417V67.9297Z" fill="#FAFAFA"/>
<path d="M83.1872 75.9336H69.6641V81.6868H83.1872V75.9336Z" fill="#FAFAFA"/>
<path d="M60.7536 75.9336H47.2305V81.6868H60.7536V75.9336Z" fill="#FAFAFA"/>
<path d="M222.816 92.0273H209.292V97.7806H222.816V92.0273Z" fill="#FAFAFA"/>
<path d="M194.32 92.0273H180.796V97.7806H194.32V92.0273Z" fill="#FAFAFA"/>
<path d="M41.1217 45.1445H27.5986V50.8978H41.1217V45.1445Z" fill="#FAFAFA"/>
<path d="M232.726 29.3477H219.203V35.1009H232.726V29.3477Z" fill="#FAFAFA"/>
<path d="M216.363 29.3477H202.84V35.1009H216.363V29.3477Z" fill="#FAFAFA"/>
<path d="M224.545 37.3477H211.021V43.1009H224.545V37.3477Z" fill="#FAFAFA"/>
<path d="M159.42 29.4648H145.896V35.2181H159.42V29.4648Z" fill="#FAFAFA"/>
<path d="M143.056 29.4648H129.533V35.2181H143.056V29.4648Z" fill="#FAFAFA"/>
<path d="M167.603 37.4805H154.079V43.2337H167.603V37.4805Z" fill="#FAFAFA"/>
<path d="M151.238 37.4805H137.715V43.2337H151.238V37.4805Z" fill="#FAFAFA"/>
<path d="M134.874 37.4805H121.351V43.2337H134.874V37.4805Z" fill="#FAFAFA"/>
<path d="M175.785 45.4883H162.262V51.2415H175.785V45.4883Z" fill="#FAFAFA"/>
<path d="M159.42 45.4883H145.896V51.2415H159.42V45.4883Z" fill="#FAFAFA"/>
<path d="M143.056 45.4883H129.533V51.2415H143.056V45.4883Z" fill="#FAFAFA"/>
<path d="M167.603 53.4961H154.079V59.2493H167.603V53.4961Z" fill="#FAFAFA"/>
<path d="M151.238 53.4961H137.715V59.2493H151.238V53.4961Z" fill="#FAFAFA"/>
<path d="M57.611 108.562H44.0879V114.316H57.611V108.562Z" fill="#FAFAFA"/>
<path d="M41.2458 108.562H27.7227V114.316H41.2458V108.562Z" fill="#FAFAFA"/>
<path d="M104.59 109.281H91.0664V115.035H104.59V109.281Z" fill="#FAFAFA"/>
<path d="M65.7926 116.562H52.2695V122.316H65.7926V116.562Z" fill="#FAFAFA"/>
<path d="M49.4284 116.562H35.9053V122.316H49.4284V116.562Z" fill="#FAFAFA"/>
<path d="M112.772 117.301H99.249V123.054H112.772V117.301Z" fill="#FAFAFA"/>
<path d="M96.4079 117.301H82.8848V123.054H96.4079V117.301Z" fill="#FAFAFA"/>
<path d="M139.832 91.3984H126.309V97.1517H139.832V91.3984Z" fill="#FAFAFA"/>
<path d="M54.9876 87.5898H41.4639V93.3431H54.9876V87.5898Z" fill="#FAFAFA"/>
<path d="M121.39 62.9922H107.866V68.7454H121.39V62.9922Z" fill="#FAFAFA"/>
<path d="M131.65 83.3945H118.127V89.1478H131.65V83.3945Z" fill="#FAFAFA"/>
<path d="M148.014 83.3945H134.491V89.1478H148.014V83.3945Z" fill="#FAFAFA"/>
<path d="M209.448 192.738H195.924V198.492H209.448V192.738Z" fill="#FAFAFA"/>
<path d="M217.63 184.734H204.106V190.488H217.63V184.734Z" fill="#FAFAFA"/>
<path d="M57.611 124.574H44.0879V130.327H57.611V124.574Z" fill="#FAFAFA"/>
<path d="M41.2458 124.574H27.7227V130.327H41.2458V124.574Z" fill="#FAFAFA"/>
<path d="M65.7926 132.582H52.2695V138.335H65.7926V132.582Z" fill="#FAFAFA"/>
<path d="M49.4284 132.582H35.9053V138.335H49.4284V132.582Z" fill="#FAFAFA"/>
<path d="M83.2917 154.742H69.7686V160.495H83.2917V154.742Z" fill="#FAFAFA"/>
<path d="M66.9264 154.742H53.4033V160.495H66.9264V154.742Z" fill="#FAFAFA"/>
<path d="M50.5622 154.742H37.0391V160.495H50.5622V154.742Z" fill="#FAFAFA"/>
<path d="M34.1989 154.742H20.6758V160.495H34.1989V154.742Z" fill="#FAFAFA"/>
<path d="M91.4739 162.758H77.9502V168.511H91.4739V162.758Z" fill="#FAFAFA"/>
<path d="M75.1091 162.758H61.5859V168.511H75.1091V162.758Z" fill="#FAFAFA"/>
<path d="M42.3805 162.758H28.8574V168.511H42.3805V162.758Z" fill="#FAFAFA"/>
<path d="M99.655 170.762H86.1318V176.515H99.655V170.762Z" fill="#FAFAFA"/>
<path d="M83.2917 170.762H69.7686V176.515H83.2917V170.762Z" fill="#FAFAFA"/>
<path d="M66.9274 170.762H53.4043V176.515H66.9274V170.762Z" fill="#FAFAFA"/>
<path d="M91.4729 178.773H77.9492V184.527H91.4729V178.773Z" fill="#FAFAFA"/>
<path d="M75.1091 178.773H61.5859V184.527H75.1091V178.773Z" fill="#FAFAFA"/>
<path d="M58.7448 178.773H45.2217V184.527H58.7448V178.773Z" fill="#FAFAFA"/>
<path d="M194 154.379H180.477V160.132H194V154.379Z" fill="#FAFAFA"/>
<path d="M159.439 154.379H145.916V160.132H159.439V154.379Z" fill="#FAFAFA"/>
<path d="M143.075 154.379H129.552V160.132H143.075V154.379Z" fill="#FAFAFA"/>
<path d="M202.182 162.379H188.658V168.132H202.182V162.379Z" fill="#FAFAFA"/>
<path d="M167.622 162.379H154.099V168.132H167.622V162.379Z" fill="#FAFAFA"/>
<path d="M151.257 162.379H137.733V168.132H151.257V162.379Z" fill="#FAFAFA"/>
<path d="M134.893 162.379H121.37V168.132H134.893V162.379Z" fill="#FAFAFA"/>
<path d="M210.364 170.395H196.841V176.148H210.364V170.395Z" fill="#FAFAFA"/>
<path d="M194.001 170.395H180.478V176.148H194.001V170.395Z" fill="#FAFAFA"/>
<path d="M159.439 170.395H145.916V176.148H159.439V170.395Z" fill="#FAFAFA"/>
<path d="M143.075 170.395H129.552V176.148H143.075V170.395Z" fill="#FAFAFA"/>
<path d="M183.987 178.402H170.463V184.156H183.987V178.402Z" fill="#FAFAFA"/>
<path d="M167.622 178.402H154.099V184.156H167.622V178.402Z" fill="#FAFAFA"/>
<path d="M151.258 178.402H137.734V184.156H151.258V178.402Z" fill="#FAFAFA"/>
<path d="M134.893 178.402H121.37V184.156H134.893V178.402Z" fill="#FAFAFA"/>
<path d="M164.643 127.578L223.06 127.578V60.7571L164.643 60.7571V127.578Z" fill="#E0E0E0"/>
<path d="M164.753 127.578H220.923V60.7571H164.753V127.578Z" fill="#E0E0E0"/>
<path d="M162.823 127.578L221.239 127.578V60.7571L162.823 60.7571V127.578Z" fill="#F0F0F0"/>
<path d="M165.474 124.508H218.688V62.8881L165.474 62.8881V124.508Z" fill="white"/>
<path d="M165.475 124.508H167.137V62.8881H165.475V124.508Z" fill="#E0E0E0"/>
<path d="M166.959 107.201V108.863H218.836V107.201H166.959Z" fill="#E0E0E0"/>
<path d="M165.474 107.199H219.58V104.409H165.474V107.199Z" fill="#F0F0F0"/>
<path d="M41.4461 127.578L99.8623 127.578L99.8623 60.7571L41.4461 60.7571L41.4461 127.578Z" fill="#E0E0E0"/>
<path d="M41.5549 127.578H97.7246L97.7246 60.7571H41.5549L41.5549 127.578Z" fill="#E0E0E0"/>
<path d="M39.6258 127.578L98.042 127.578L98.042 60.7571L39.6258 60.7571L39.6258 127.578Z" fill="#F0F0F0"/>
<path d="M42.277 124.508H95.4912L95.4912 62.8881L42.277 62.8881L42.277 124.508Z" fill="white"/>
<path d="M42.2776 124.508H43.9395L43.9395 62.8881H42.2776L42.2776 124.508Z" fill="#E0E0E0"/>
<path d="M43.7617 107.201V108.863H95.6392V107.201H43.7617Z" fill="#E0E0E0"/>
<path d="M42.278 107.199H96.3838V104.409H42.278V107.199Z" fill="#F0F0F0"/>
<path d="M128.842 226C193.787 226 246.435 222.926 246.435 219.133C246.435 215.34 193.787 212.266 128.842 212.266C63.8965 212.266 11.248 215.34 11.248 219.133C11.248 222.926 63.8965 226 128.842 226Z" fill="#F5F5F5"/>
<path d="M31.4276 203.464C31.4276 203.464 30.5858 197.293 26.6393 196.618C22.6934 195.943 23.8827 192.959 22.8547 191.804C21.8267 190.649 19.1417 194.057 21.4416 197.357C23.742 200.658 21.8613 199.621 22.8547 202.69C23.8488 205.76 31.7885 208.579 31.4276 203.464Z" fill="#263238"/>
<path opacity="0.2" d="M31.4276 203.464C31.4276 203.464 30.5858 197.293 26.6393 196.618C22.6934 195.943 23.8827 192.959 22.8547 191.804C21.8267 190.649 19.1417 194.057 21.4416 197.357C23.742 200.658 21.8613 199.621 22.8547 202.69C23.8488 205.76 31.7885 208.579 31.4276 203.464Z" fill="white"/>
<path d="M31.2634 207.472C31.2634 207.472 28.2388 201.186 29.8266 190.927C31.4144 180.668 37.3781 176.687 32.1944 165.398C27.0106 154.11 21.087 146.061 24.0497 138.051" stroke="#263238" stroke-width="0.4512" stroke-miterlimit="10" stroke-linecap="round" stroke-linejoin="round"/>
<path d="M28.9856 206.239C28.9856 206.239 26.4346 202.395 30.1167 200.419C33.7981 198.443 34.5356 200.034 36.8136 198.613C39.0917 197.192 40.8171 193.748 41.2059 195.952C41.5941 198.155 38.9631 199.412 39.8941 200.419C40.8238 201.427 33.7017 207.972 28.9856 206.239Z" fill="#263238"/>
<path d="M22.9691 141.265C22.9691 141.265 20.4837 133.712 26.135 133.553C31.787 133.395 25.557 140.46 22.9691 141.265Z" fill="#263238"/>
<path d="M27.8779 147.066C27.8779 147.066 29.5622 140.198 33.5742 141.646C37.5855 143.095 31.876 147.192 27.8779 147.066Z" fill="#263238"/>
<path d="M21.0722 147.662C21.0722 147.662 21.6769 142.181 17.4199 142.072C13.1629 141.964 15.0576 146.777 21.0722 147.662Z" fill="#263238"/>
<path d="M23.9035 158.842C23.9035 158.842 18.1903 153.749 16.1361 157.539C14.0813 161.329 20.4453 162.119 23.9035 158.842Z" fill="#263238"/>
<path d="M34.0117 157.946C34.0117 157.946 35.0858 149.487 39.7007 152.14C44.3155 154.793 38.0316 158.791 34.0117 157.946Z" fill="#263238"/>
<path d="M38.0725 170.054C38.0725 170.054 34.6664 161.507 40.9958 162.47C47.3258 163.433 42.5405 167.98 38.0725 170.054Z" fill="#263238"/>
<path d="M28.3599 173.103C28.3599 173.103 23.013 166.804 18.9276 168.801C14.841 170.799 18.1804 177.061 28.3599 173.103Z" fill="#263238"/>
<path d="M33.2109 187.052C33.2109 187.052 37.7657 176.938 41.8159 180.346C45.8655 183.756 39.2323 188.851 33.2109 187.052Z" fill="#263238"/>
<path d="M26.5928 186.466C26.5928 186.466 27.7961 178.62 23.2868 179.251C18.7775 179.882 19.9619 184.682 26.5928 186.466Z" fill="#263238"/>
<g opacity="0.2">
<path d="M22.9681 141.265C22.9681 141.265 20.4827 133.712 26.1341 133.553C31.786 133.395 25.5561 140.46 22.9681 141.265Z" fill="white"/>
<path d="M27.8779 147.066C27.8779 147.066 29.5622 140.198 33.5742 141.646C37.5855 143.095 31.876 147.192 27.8779 147.066Z" fill="white"/>
<path d="M21.0722 147.666C21.0722 147.666 21.6769 142.185 17.4199 142.076C13.1629 141.967 15.0576 146.781 21.0722 147.666Z" fill="white"/>
<path d="M23.9035 158.846C23.9035 158.846 18.1903 153.753 16.1361 157.543C14.0813 161.333 20.4453 162.123 23.9035 158.846Z" fill="white"/>
<path d="M34.0117 157.946C34.0117 157.946 35.0858 149.487 39.7007 152.14C44.3155 154.793 38.0316 158.791 34.0117 157.946Z" fill="white"/>
<path d="M38.0725 170.054C38.0725 170.054 34.6664 161.507 40.9958 162.47C47.3258 163.433 42.5405 167.98 38.0725 170.054Z" fill="white"/>
<path d="M28.3589 173.107C28.3589 173.107 23.012 166.808 18.9266 168.805C14.84 170.803 18.1794 177.065 28.3589 173.107Z" fill="white"/>
<path d="M33.21 187.052C33.21 187.052 37.7648 176.938 41.815 180.346C45.8646 183.756 39.2313 188.851 33.21 187.052Z" fill="white"/>
<path d="M26.5918 186.466C26.5918 186.466 27.7951 178.62 23.2858 179.251C18.7765 179.882 19.961 184.682 26.5918 186.466Z" fill="white"/>
</g>
<path d="M19.6553 145.867C19.6553 145.867 22.0867 149.48 25.4134 151.343C25.4134 151.343 27.6138 147.097 29.3301 146.068" stroke="#263238" stroke-width="0.4512" stroke-miterlimit="10" stroke-linecap="round" stroke-linejoin="round"/>
<path d="M19.5176 158.338C19.5176 158.338 25.7002 158.139 30.5941 161.838C30.5941 161.838 33.3112 157.232 36.8762 155.133" stroke="#263238" stroke-width="0.4512" stroke-miterlimit="10" stroke-linecap="round" stroke-linejoin="round"/>
<path d="M39.936 166.004C39.936 166.004 37.282 172.99 33.8928 175.707C33.8928 175.707 26.8696 171.636 21.7119 171.534" stroke="#263238" stroke-width="0.4512" stroke-miterlimit="10" stroke-linecap="round" stroke-linejoin="round"/>
<path d="M23.8076 181.793C23.8076 181.793 27.278 188.567 29.8665 190.047C29.8665 190.047 32.2859 186.635 37.52 185.064" stroke="#263238" stroke-width="0.4512" stroke-miterlimit="10" stroke-linecap="round" stroke-linejoin="round"/>
<path d="M29.3767 205.324C29.3767 205.324 27.1897 201.843 24.7194 201.347C22.2491 200.852 21.1847 198.006 20.2731 199.717C19.3616 201.429 21.8755 207.102 29.3767 205.324Z" fill="#263238"/>
<path d="M20.466 218.989H38.7077L39.9286 204.258H19.2451L20.466 218.989Z" fill="#407BFF"/>
<path d="M18.8203 207.044H40.3552L40.6312 203.922H18.5449L18.8203 207.044Z" fill="#407BFF"/>
<path d="M18.8203 207.044H40.3552L40.6312 203.922H18.5449L18.8203 207.044Z" fill="#FF5C2C"/>
<path d="M55.0594 117.094C55.1286 117.024 55.2032 116.962 55.2869 116.916L66.2348 95.2812L61.2021 96.2565L56.791 104.897C56.8171 104.906 56.8431 104.912 56.8674 104.927C57.0348 105.03 57.0706 105.273 56.9651 105.431C56.8638 105.583 56.7801 105.746 56.6921 105.905C56.7692 105.956 56.8413 106.013 56.9232 106.056C57.05 106.124 57.0997 106.301 57.0724 106.431C57.0427 106.572 56.9317 106.685 56.7892 106.713C56.7394 106.723 56.6897 106.734 56.6406 106.748C56.6375 106.749 56.6242 106.753 56.6133 106.756C56.6018 106.76 56.583 106.767 56.5793 106.768C56.4968 106.799 56.4168 106.837 56.3404 106.881C56.3228 106.891 56.3058 106.902 56.2882 106.913C56.284 106.915 56.2852 106.915 56.2821 106.916C56.2518 106.938 56.2215 106.96 56.1924 106.984C56.1281 107.035 56.0668 107.09 56.0086 107.149C55.9752 107.183 55.9425 107.218 55.9104 107.253C55.9091 107.255 55.9097 107.254 55.9073 107.257C55.8934 107.274 55.8794 107.29 55.8649 107.307C55.8072 107.377 55.7521 107.449 55.6987 107.522C55.578 107.687 55.464 107.856 55.3499 108.025C55.2929 108.109 55.2086 108.16 55.1177 108.175L48.6572 120.832L49.2898 124.094L52.1604 123.537C52.2671 123.27 52.3957 123.007 52.6086 122.81C52.7044 122.721 52.8124 122.646 52.9227 122.576C52.9233 122.552 52.9215 122.531 52.9227 122.508C52.9931 121.031 53.6026 119.645 54.3201 118.374C54.2443 118.26 54.2297 118.104 54.3104 117.967C54.4135 117.793 54.4432 117.593 54.4165 117.394C54.365 117.002 54.8696 116.847 55.0594 117.094Z" fill="#FF5C2C"/>
<path d="M73.9287 115.166C73.9202 115.255 73.8978 115.344 73.859 115.429C73.691 115.794 73.3683 116.04 73.0232 116.23C72.9504 116.334 72.8752 116.437 72.8043 116.543C72.7642 116.602 72.7084 116.638 72.6484 116.664C72.6308 116.721 72.609 116.777 72.5926 116.835C72.538 117.03 72.3082 117.111 72.1298 117.058C71.9339 116.998 71.8563 116.777 71.9073 116.595C71.9673 116.38 72.0449 116.17 72.1365 115.966L71.792 116.033C71.5925 116.072 71.4124 115.937 71.3663 115.746C71.3596 115.718 71.365 115.692 71.3657 115.664L71.1588 115.704L69.7857 108.621L65.4056 109.47L66.7787 116.554L55.9375 118.655C55.8642 118.693 55.7993 118.744 55.7277 118.785C55.7338 118.803 55.7404 118.821 55.7465 118.838C55.8175 119.03 55.7695 119.221 55.5827 119.325C55.4396 119.404 55.2213 119.348 55.1291 119.208C54.9235 119.379 54.7397 119.573 54.5735 119.781C54.7003 119.748 54.8337 119.779 54.935 119.886C55.0648 120.021 55.0527 120.282 54.9016 120.398C54.8022 120.475 54.7076 120.557 54.6129 120.64C54.6906 120.758 54.6918 120.923 54.6154 121.043C54.619 121.039 54.6166 121.04 54.6142 121.046L54.6135 121.048C54.6099 121.054 54.6063 121.06 54.6026 121.066C54.5966 121.082 54.5917 121.099 54.5869 121.114C54.5863 121.119 54.585 121.125 54.585 121.13C54.5826 121.151 54.5808 121.174 54.5802 121.196C54.5766 121.284 54.585 121.374 54.5747 121.462C54.5553 121.627 54.4935 121.776 54.3728 121.893C54.2478 122.014 54.0738 122.074 53.907 122.108C53.8936 122.111 53.8815 122.107 53.8682 122.108C53.8821 122.288 53.9058 122.467 53.9452 122.643C54.0307 122.809 54.0889 122.983 54.1381 123.163L67.4167 120.589L68.9706 128.603L73.4902 127.727L71.9364 119.712L78.1342 118.511L77.3573 114.504L73.9287 115.166Z" fill="#FF5C2C"/>
<path d="M100.215 93.3273C100.117 93.4104 100.017 93.4929 99.9206 93.5778C99.7835 93.6991 99.6495 93.8235 99.5203 93.9533C99.4742 94 99.4154 94.0794 99.3572 94.1298C99.3481 94.1413 99.3372 94.1516 99.3262 94.1595C99.2977 94.194 99.2686 94.2286 99.2407 94.2638C99.0006 94.5628 98.6276 94.6902 98.2734 94.5118C97.9222 94.3347 97.793 93.9557 97.8949 93.5875C97.9543 93.3734 98.0132 93.1593 98.0702 92.9446C98.049 92.9149 98.0174 92.8943 98.0017 92.8591C97.9513 92.7663 97.9277 92.6681 97.9307 92.5644C97.9161 92.4643 97.9277 92.366 97.9653 92.2702C97.9865 92.1962 98.0162 92.1228 98.0502 92.0525C97.9252 91.9282 97.81 91.7899 97.7208 91.6098C97.713 91.594 97.7099 91.5752 97.702 91.5588C95.2106 90.233 92.3703 89.8291 89.4179 90.4016C81.776 91.8833 77.2648 99.043 79.3245 109.668C81.3842 120.292 88.2431 125.248 95.8856 123.766C96.5861 123.63 97.2605 123.445 97.9064 123.214C98.1151 122.913 98.3273 122.614 98.5329 122.31C98.8859 121.788 99.5312 121.956 99.8011 122.357C104.939 119.494 107.607 113.147 105.932 104.51C104.958 99.4839 102.907 95.7351 100.215 93.3273ZM95.0814 119.618C89.9552 120.612 85.6012 117.105 83.9842 108.763C82.3673 100.422 85.096 95.5417 90.2215 94.5482C93.0223 94.0054 95.5999 94.8363 97.622 97.0828C97.7069 97.0221 97.8027 96.9748 97.9101 96.9488C98.3061 96.8535 98.7282 97.1586 98.7998 97.5498C98.8714 97.9422 98.8696 98.3273 98.8289 98.7094C99.8933 100.425 100.736 102.647 101.272 105.413C102.889 113.753 100.161 118.634 95.0814 119.618Z" fill="#FF5C2C"/>
<path d="M133.42 103.628L132.047 96.5442L127.667 97.3933L129.04 104.477L116.505 106.906L128.496 83.2109L123.463 84.1868L118.957 93.015C118.913 94.1134 118.697 95.1887 118.297 96.2367C118.165 96.5824 117.713 96.5012 117.611 96.2355C117.44 97.1665 117.095 98.0562 116.36 98.6997C116.249 98.7968 116.127 98.8034 116.021 98.7652L110.918 108.763L111.55 112.024L119.092 110.562C119.666 110.002 120.646 109.716 121.309 109.56C122.018 109.392 122.745 109.303 123.472 109.272C124.016 109.249 124.576 109.256 125.105 109.397L129.676 108.51L131.23 116.525L135.75 115.649L134.197 107.634L140.394 106.433L139.618 102.425L133.42 103.628Z" fill="#FF5C2C"/>
<path d="M50.0573 84.2126L49.3429 80.5257L56.7391 79.0919L56.1836 76.2244L48.7873 77.6582L48.1171 74.1993L56.4923 72.5757L55.9185 69.6172L43.8789 71.951L44.9093 77.2664C45.0895 77.3652 45.2551 77.4877 45.3879 77.6478C45.6232 77.9317 45.7457 78.2895 45.7839 78.6534C45.8634 79.4146 45.6735 80.197 45.8094 80.9326C45.8373 81.0824 45.776 81.1934 45.6838 81.2656L46.9666 87.8825L59.3022 85.4917L58.7284 82.5332L50.0573 84.2126Z" fill="#407BFF"/>
<path d="M71.7844 77.7628C73.6233 76.5146 74.4821 74.6084 74.1145 72.3195C74.0533 72.3831 73.9787 72.4311 73.8841 72.4365C73.7549 72.4438 73.5869 72.371 73.5378 72.2388C73.4674 72.049 73.394 71.85 73.374 71.6469C73.371 71.6196 73.3734 71.5923 73.3716 71.565C73.2612 71.4176 73.1739 71.2611 73.1363 71.078C73.095 70.8784 73.2339 70.6977 73.4237 70.6522C73.502 70.6334 73.5747 70.6558 73.6421 70.6922C72.4837 68.0988 69.6962 66.9507 66.0463 67.6585L59.1504 68.9952L60.0826 73.803C60.1481 73.8333 60.2087 73.8812 60.2482 73.9667C60.8049 75.1676 61.2283 76.44 61.3241 77.767C61.338 77.9635 61.2483 78.1516 61.0366 78.1928C61.0039 78.1989 60.9681 78.1946 60.9329 78.1904L62.2387 84.9268L65.9256 84.2123L65.0656 79.7745L68.4565 79.1171L72.389 82.9593L76.3489 82.1914L71.7844 77.7628ZM67.5013 76.2556L64.4973 76.8379L63.4207 71.2848L66.4247 70.7025C68.6779 70.2659 70.0146 71.0695 70.3542 72.8216C70.689 74.5514 69.7544 75.819 67.5013 76.2556Z" fill="#407BFF"/>
<path d="M88.5136 74.517C90.4126 73.2282 91.2787 71.2419 90.8159 68.8523C90.1233 65.2788 87.0325 63.5879 82.7767 64.4127L75.8809 65.7495L78.9691 81.6804L82.6561 80.9659L81.796 76.5282L85.187 75.8707L89.1195 79.7129L93.0793 78.9451L88.5136 74.517ZM84.2311 73.0099L81.2271 73.5921L80.1506 68.039L83.1546 67.4568C83.3426 67.4204 83.5221 67.3961 83.6962 67.3779C83.7338 67.347 83.769 67.3112 83.8078 67.2815C83.8211 67.1899 83.8369 67.0977 83.8703 67.0146C83.9588 66.7933 84.1493 66.6641 84.3882 66.6653C84.6053 66.6665 84.814 66.7793 85.0014 66.8769C85.0335 66.8399 85.0711 66.8066 85.1166 66.7829C85.1227 66.6701 85.1312 66.5573 85.1603 66.4397C85.2088 66.2486 85.4508 66.1564 85.6237 66.2171C85.8202 66.2862 85.8942 66.49 85.8462 66.6798C85.7753 66.9588 85.9093 67.2087 85.882 67.4944C85.8747 67.5696 85.8474 67.629 85.8208 67.6891C86.4873 68.0529 86.9125 68.6934 87.0835 69.5759C87.4189 71.3056 86.4837 72.5726 84.2311 73.0099Z" fill="#407BFF"/>
<path d="M105.964 61.3393C105.901 61.3526 105.838 61.3678 105.776 61.386C105.731 61.403 105.688 61.423 105.648 61.4466C105.631 61.46 105.614 61.4721 105.6 61.4879L105.605 61.4818C105.551 61.5455 105.481 61.5904 105.399 61.6098C105.305 61.6322 105.207 61.6037 105.127 61.554C105.049 61.5067 104.99 61.4096 104.973 61.3223C104.956 61.2319 104.976 61.1258 105.029 61.05C105.044 61.0287 105.064 61.0154 105.08 60.9966C103.626 60.5229 101.989 60.4089 100.274 60.7407C95.2443 61.7159 92.2367 65.9353 93.1543 70.669C94.0719 75.4028 98.4381 78.1927 103.468 77.218C108.475 76.2476 111.509 72.0464 110.588 67.2902C110.047 64.5022 108.312 62.4067 105.964 61.3393ZM102.86 74.0776C100.014 74.6289 97.4738 72.9725 96.8867 69.9455C96.3002 66.9185 98.0378 64.433 100.883 63.8817C101.599 63.7428 102.296 63.7459 102.947 63.8744C102.972 63.792 102.996 63.7076 103.028 63.6312C103.098 63.4596 103.262 63.3638 103.445 63.3989C103.598 63.4287 103.682 63.5384 103.715 63.6725C103.786 63.6518 103.857 63.6385 103.928 63.6197C103.975 63.4699 104.025 63.3201 104.067 63.1685C104.091 63.083 104.114 62.9968 104.136 62.9107C104.146 62.8683 104.157 62.8258 104.167 62.7827C104.17 62.7694 104.173 62.7554 104.176 62.7421C104.176 62.7397 104.176 62.7433 104.176 62.7403C104.188 62.6681 104.202 62.5959 104.21 62.5232C104.212 62.4965 104.213 62.4698 104.214 62.4431C104.177 62.1987 104.432 61.91 104.691 62.0361C104.931 62.1526 105.171 62.269 105.41 62.3855C105.571 62.4637 105.723 62.6572 105.633 62.8482C105.59 62.9392 105.551 63.0314 105.521 63.1272C105.511 63.16 105.503 63.1933 105.494 63.2261C105.49 63.24 105.489 63.2431 105.488 63.2479C105.485 63.2631 105.483 63.2782 105.48 63.294C105.457 63.4372 105.451 63.5827 105.451 63.7277C105.45 64.0758 105.453 64.4173 105.39 64.7605C105.423 64.8357 105.433 64.9206 105.401 65.0116C105.387 65.051 105.363 65.0874 105.335 65.1208C106.079 65.8371 106.623 66.8141 106.856 68.0144C107.442 71.0402 105.705 73.5263 102.86 74.0776Z" fill="#407BFF"/>
<path d="M126.817 62.3384C126.797 62.3312 126.774 62.3293 126.754 62.3208C126.626 62.2663 126.46 62.1965 126.362 62.0904C126.304 62.1814 126.244 62.2723 126.173 62.3572C126.047 62.5082 125.845 62.5738 125.669 62.4549C125.518 62.353 125.446 62.1013 125.572 61.9509C125.964 61.4802 126.121 60.895 126.227 60.2921C125.02 57.8303 122.281 56.7532 118.72 57.4434L111.824 58.7801L114.913 74.711L118.599 73.9966L117.739 69.5588L121.13 68.9014L125.062 72.7435L129.022 71.9757L124.456 67.5477C126.232 66.3425 127.09 64.523 126.817 62.3384ZM120.174 66.0405L117.17 66.6227L116.093 61.0696L119.097 60.4874C121.351 60.0507 122.687 60.8543 123.027 62.6071C123.362 64.3362 122.427 65.6038 120.174 66.0405Z" fill="#407BFF"/>
<path d="M147.319 93.0717L146.401 93.2495C146.021 93.3228 145.859 92.8698 146.092 92.6199C146.104 92.6072 146.117 92.5981 146.129 92.5859C145.865 92.6994 145.604 92.8182 145.334 92.9177C145.303 93.3131 145.309 93.7092 145.321 94.1052L151.304 124.968L129.145 129.263C129.158 129.303 129.166 129.346 129.162 129.395C129.148 129.575 128.964 129.766 128.771 129.729C128.41 129.66 128.048 129.595 127.683 129.547L98.3408 135.235C98.3347 135.282 98.3196 135.331 98.2917 135.379C98.1825 135.567 98.0563 135.744 97.9205 135.915C97.9326 136.028 97.9265 136.142 97.8865 136.238C97.6106 136.9 97.4074 137.592 97.0047 138.195C96.8906 138.365 96.7154 138.468 96.5201 138.515C96.3915 138.546 96.2599 138.528 96.1368 138.485C95.9979 138.787 95.8996 139.101 95.8359 139.426L142.849 130.313C142.866 130.294 142.878 130.273 142.895 130.254C143.439 129.691 144.199 129.51 144.954 129.519C145.236 129.208 145.549 128.93 145.899 128.734C146.232 128.547 146.634 128.461 146.986 128.643C147.234 128.771 147.386 128.994 147.493 129.243C147.951 129.182 148.418 129.157 148.886 129.144L155.571 127.848L149.054 94.2332C148.391 93.9815 147.781 93.5994 147.319 93.0717Z" fill="#407BFF"/>
<path d="M86.5416 49.0959C86.6156 49.1141 86.689 49.1262 86.763 49.1402L91.1486 48.2899C91.632 48.0764 92.1093 47.8538 92.5824 47.6524C93.4751 47.2722 94.4067 46.9368 95.3844 46.884C95.9775 46.8519 96.5446 46.9513 97.0856 47.1393L134.8 39.8286L138.297 57.8695C138.454 57.6409 138.89 57.6384 138.959 57.9914C139.117 58.7981 139.321 59.6138 139.286 60.4423C139.269 60.8474 139.172 61.2265 139.017 61.5795L144.969 92.2877C145.328 92.1555 145.681 92.0093 146.028 91.8529C146.148 91.4495 146.312 91.0001 146.704 90.7988C146.959 90.6678 147.24 90.6763 147.514 90.7387C147.666 90.4051 147.764 90.0437 147.821 89.7483C147.896 89.3541 147.945 88.9144 147.937 88.4777L147.696 87.2332C147.668 87.1695 147.643 87.1046 147.611 87.0439C147.55 86.9317 147.558 86.828 147.6 86.7425L141.344 54.4671C141.307 54.4768 141.27 54.4853 141.232 54.4859C140.786 54.4925 140.342 54.3567 140.099 53.9582C139.894 53.6228 139.903 53.1904 139.949 52.8137C140.005 52.3589 140.122 51.9137 140.211 51.4643C140.291 51.0549 140.366 50.6012 140.3 50.2361C140.27 50.0706 140.345 49.948 140.455 49.8789L137.679 35.5625L83.3035 46.1028C82.2476 46.6111 81.1729 47.0744 79.9787 46.9695C79.8459 46.958 79.7604 46.8889 79.71 46.7997L52.7262 52.0302C52.6983 52.1715 52.5807 52.2934 52.4382 52.3213L51.0208 52.596C51.0074 52.8077 50.9565 53.0212 50.8358 53.1958C50.8237 53.2765 50.783 53.3693 50.7193 53.4184C50.6241 53.4918 50.5368 53.5761 50.4494 53.658C50.2869 53.8108 50.1316 53.9746 49.9618 54.1195C49.9 54.1723 49.8332 54.2154 49.7526 54.2311C49.624 54.256 49.4979 54.2069 49.4087 54.1141C49.3396 54.0419 49.3159 53.9406 49.3195 53.8442C49.3208 53.8096 49.3298 53.775 49.3426 53.7423C49.123 53.7344 48.9035 53.7126 48.6936 53.6853C48.4917 53.6592 48.3528 53.5003 48.3595 53.2953C48.3655 53.1061 48.5614 52.9369 48.7494 52.9611C48.9781 52.9909 49.2079 53.0139 49.4384 53.0175C49.4948 53.0181 49.5512 53.0181 49.607 53.0163C49.6125 53.0163 49.6198 53.0169 49.6258 53.0175C49.6222 53.0169 49.6222 53.0169 49.6179 53.0163C49.6416 53.0206 49.6737 53.0115 49.6974 53.009C49.7071 53.0078 49.7168 53.0048 49.7265 53.0036C49.5421 52.9878 49.3966 52.8774 49.2686 52.7519C49.2546 52.7379 49.2456 52.7216 49.2352 52.7064L33.6118 55.7346C33.6828 55.734 33.7543 55.7474 33.8192 55.7874C33.9848 55.8893 34.0248 56.1349 33.9169 56.2914C33.7974 56.4649 33.6446 56.6044 33.4978 56.7523C33.4857 56.7645 33.4693 56.7875 33.4547 56.7972C33.4596 56.7936 33.4572 56.7942 33.4614 56.7918C33.4614 56.7912 33.462 56.7906 33.4626 56.79C33.4887 56.7572 33.502 56.7627 33.4614 56.7918C33.4359 56.8239 33.4147 56.8579 33.3923 56.8925C33.3838 56.9143 33.3747 56.9361 33.3674 56.9592C33.3619 56.9762 33.3553 56.9968 33.3516 57.0162C33.3498 57.0289 33.3474 57.0417 33.3456 57.0544C33.3067 57.3243 33.0199 57.4814 32.7803 57.3273C32.7767 57.3249 32.7706 57.3212 32.7639 57.3176C32.7603 57.3158 32.756 57.314 32.7524 57.3128C32.7197 57.2994 32.6863 57.2879 32.6523 57.2764C32.6129 57.2636 32.5723 57.2527 32.5322 57.2412C32.5286 57.4098 32.4977 57.5754 32.4025 57.7258C32.3321 57.838 32.2078 57.8823 32.0853 57.8756C32.0185 58.2158 31.9148 58.5464 31.745 58.8514C31.5655 59.1741 31.3095 59.4288 31.0166 59.6393C31.0239 59.6466 31.0366 59.6514 31.0427 59.6593C31.1015 59.7387 31.1512 59.8231 31.1895 59.9116L54.4184 55.409C54.4269 55.3968 54.4366 55.3853 54.4451 55.3732C54.5536 55.2197 54.6695 55.056 54.8235 54.945C55.0376 54.7909 55.2717 54.7497 55.5271 54.8146C55.7175 54.8631 55.8928 54.9723 56.0529 55.0924L86.1316 49.2621C86.2141 49.1371 86.3591 49.0504 86.5416 49.0959Z" fill="#407BFF"/>
<path d="M46.0979 145.368L40.6491 117.257C40.5539 117.366 40.4023 117.409 40.2561 117.365C40.0705 117.309 39.968 117.081 40.0335 116.902C40.1233 116.658 40.2525 116.38 40.4375 116.167L33.2771 79.2272C33.2547 79.1884 33.2298 79.152 33.2092 79.112C33.057 78.8148 32.9642 78.494 32.8999 78.1671C32.7731 78.164 32.647 78.1634 32.5208 78.1816C32.2722 78.218 32.0926 78.0391 32.0896 77.7971C32.0811 77.1051 32.2685 76.4076 32.6124 75.8017L29.7152 60.8558C29.6679 60.7751 29.6248 60.6926 29.5848 60.6071C29.5411 60.5143 29.492 60.4252 29.4429 60.336C29.3258 60.3275 29.2184 60.2741 29.1572 60.1504C29.0741 59.9818 29.1408 59.7404 29.3216 59.6634C29.4962 59.5888 29.5896 59.5354 29.7237 59.4038C29.7855 59.3426 29.8953 59.1733 29.9287 59.0872C30.0306 58.827 30.0663 58.5711 30.076 58.286C29.9905 58.1593 29.9135 58.0271 29.8844 57.8742C29.845 57.6692 29.888 57.4673 29.9396 57.2695C29.9529 57.2174 29.9826 57.1749 30.019 57.1385C29.9972 56.9081 29.9784 56.677 29.9663 56.4453L25.3271 57.3448L38.5676 125.65C38.6956 125.586 38.8503 125.594 38.9631 125.744C39.2542 126.132 39.5514 126.598 39.4877 127.107C39.4743 127.213 39.4422 127.308 39.4046 127.4C39.5204 127.495 39.5926 127.662 39.5253 127.801C39.3482 128.163 39.2924 128.529 39.3621 128.927C39.4258 129.291 39.5574 129.639 39.6727 129.989C39.8752 130.603 39.9529 131.205 39.757 131.783L43.2164 149.631L44.199 149.441C44.7569 149.264 45.3167 149.099 45.885 148.999C45.8705 148.916 45.8765 148.83 45.9384 148.756C46.0694 148.6 46.2265 148.432 46.4006 148.281C46.3878 148.219 46.3848 148.153 46.403 148.089C46.5194 147.685 46.7311 147.279 47.0768 147.025C47.3831 146.8 47.7512 146.696 48.1303 146.724C48.8696 146.781 49.5052 147.265 49.914 147.862C50.9099 147.616 51.9852 147.273 52.9253 147.749L90.6228 140.441C90.6386 140.344 90.6531 140.248 90.6816 140.151C90.826 139.659 91.1371 139.228 91.5132 138.885C91.6351 138.774 91.8061 138.778 91.9389 138.856C91.9535 138.835 91.9644 138.813 91.9844 138.794C92.1203 138.664 92.3804 138.677 92.4969 138.827C92.5454 138.89 92.5952 138.951 92.6491 139.009C92.6704 139.032 92.6916 139.053 92.7134 139.075C92.7177 139.078 92.7152 139.077 92.7183 139.08C92.7213 139.082 92.7195 139.08 92.7237 139.084C92.7595 139.112 92.7971 139.138 92.8365 139.162C92.8408 139.164 92.8493 139.169 92.8578 139.174C92.8656 139.177 92.8729 139.181 92.8778 139.183C92.9221 139.202 92.9645 139.223 93.0082 139.244C92.9026 138.891 92.8705 138.518 92.9918 138.161C93.1289 137.758 93.4509 137.454 93.8318 137.278C93.7075 137.084 93.7542 136.771 94.0489 136.714C94.4474 136.637 94.6021 137.162 94.3376 137.361C94.351 137.378 94.3667 137.39 94.3776 137.41C94.468 137.574 94.3892 137.824 94.2139 137.897C94.166 137.918 94.1187 137.939 94.0732 137.963C94.0483 137.976 94.0235 137.991 93.998 138.007C94.015 137.999 94.015 138.006 93.9695 138.024C93.9555 138.035 93.941 138.045 93.927 138.056C93.8943 138.082 93.8633 138.11 93.8336 138.14C93.8288 138.145 93.8233 138.152 93.8185 138.158C93.8239 138.15 93.8276 138.146 93.8373 138.132C93.8263 138.147 93.8136 138.161 93.8021 138.175C93.7796 138.204 93.7584 138.234 93.7396 138.265C93.7317 138.278 93.7244 138.291 93.7166 138.304C93.7026 138.336 93.6887 138.368 93.6771 138.401C93.6765 138.403 93.6765 138.405 93.6759 138.406C93.8015 138.247 93.9355 138.098 94.095 137.984C94.2 137.908 94.3134 137.85 94.4304 137.803C94.7288 137.15 95.0066 136.486 95.2856 135.831L46.0979 145.368Z" fill="#407BFF"/>
<path d="M94.7381 158.727H120.658C123.621 158.727 126.023 161.129 126.023 164.092V173.187C126.023 176.149 123.621 178.552 120.658 178.552H103.434L95.5605 186.981L99.8248 178.552H94.7381C91.7754 178.552 89.373 176.15 89.373 173.187V164.092C89.373 161.129 91.7748 158.727 94.7381 158.727Z" fill="#407BFF"/>
<path opacity="0.7" d="M94.7381 158.727H120.658C123.621 158.727 126.023 161.129 126.023 164.092V173.187C126.023 176.149 123.621 178.552 120.658 178.552H103.434L95.5605 186.981L99.8248 178.552H94.7381C91.7754 178.552 89.373 176.15 89.373 173.187V164.092C89.373 161.129 91.7748 158.727 94.7381 158.727Z" fill="white"/>
<path d="M96.0059 168.138C96.0059 166.444 97.3116 165.18 99.0887 165.18C100.849 165.18 102.155 166.436 102.155 168.138C102.155 169.841 100.849 171.097 99.0887 171.097C97.3123 171.097 96.0059 169.832 96.0059 168.138ZM101.328 168.138C101.328 166.857 100.37 165.915 99.0893 165.915C97.7914 165.915 96.8331 166.857 96.8331 168.138C96.8331 169.419 97.7914 170.362 99.0893 170.362C100.37 170.362 101.328 169.419 101.328 168.138Z" fill="#407BFF"/>
<path d="M102.898 168.845C102.898 167.539 103.865 166.613 105.179 166.613C106.493 166.613 107.452 167.539 107.452 168.845C107.452 170.15 106.493 171.084 105.179 171.084C103.865 171.084 102.898 170.15 102.898 168.845ZM106.65 168.845C106.65 167.911 106.022 167.308 105.179 167.308C104.336 167.308 103.7 167.911 103.7 168.845C103.7 169.779 104.336 170.39 105.179 170.39C106.022 170.39 106.65 169.779 106.65 168.845Z" fill="#407BFF"/>
<path d="M113.085 168.845C113.085 170.192 112.152 171.084 110.871 171.084C110.251 171.084 109.705 170.844 109.342 170.374V172.638H108.549V166.655H109.309V167.349C109.665 166.861 110.226 166.613 110.871 166.613C112.152 166.613 113.085 167.506 113.085 168.845ZM112.284 168.845C112.284 167.919 111.647 167.308 110.805 167.308C109.97 167.308 109.334 167.919 109.334 168.845C109.334 169.779 109.97 170.39 110.805 170.39C111.647 170.39 112.284 169.779 112.284 168.845Z" fill="#407BFF"/>
<path d="M113.631 170.571L113.961 169.944C114.333 170.207 114.928 170.398 115.498 170.398C116.234 170.398 116.54 170.175 116.54 169.803C116.54 168.82 113.772 169.671 113.772 167.927C113.772 167.142 114.474 166.613 115.598 166.613C116.168 166.613 116.813 166.762 117.193 167.01L116.854 167.638C116.458 167.381 116.019 167.291 115.59 167.291C114.895 167.291 114.556 167.547 114.556 167.894C114.556 168.927 117.334 168.084 117.334 169.786C117.334 170.58 116.606 171.084 115.441 171.084C114.713 171.084 113.995 170.861 113.631 170.571Z" fill="#407BFF"/>
<path d="M118.142 170.555C118.142 170.258 118.373 170.026 118.687 170.026C118.993 170.026 119.216 170.258 119.216 170.555C119.216 170.845 118.993 171.084 118.687 171.084C118.373 171.084 118.142 170.845 118.142 170.555ZM118.216 165.25H119.15L118.993 169.208H118.365L118.216 165.25Z" fill="#407BFF"/>
<path d="M245.864 64.1988C245.864 66.176 235.05 67.8742 219.56 68.6202C219.148 68.6384 218.736 68.6566 218.317 68.6808C217.765 68.699 217.207 68.7233 216.643 68.7476C214.32 68.8385 211.906 68.9053 209.42 68.9598C209.05 68.9598 208.68 68.9659 208.304 68.978C208.092 68.978 207.879 68.9841 207.667 68.9841C205.757 69.0144 203.804 69.0266 201.82 69.0266C198.23 69.0266 194.742 68.978 191.401 68.8931C190.582 68.8689 189.769 68.8446 188.969 68.8143C182.873 68.6141 177.342 68.2684 172.684 67.8196C163.544 66.9341 157.776 65.6423 157.776 64.1988C157.776 62.0215 170.877 60.1899 188.896 59.5834C189.363 59.5652 189.836 59.553 190.309 59.5348C191.564 59.4985 192.838 59.4681 194.136 59.4439C195.695 59.4135 197.284 59.3953 198.891 59.3832C199.012 59.3832 199.127 59.3772 199.243 59.3772C199.249 59.3772 199.249 59.3772 199.249 59.3772C200.098 59.3711 200.959 59.3711 201.82 59.3711C206.357 59.3711 210.736 59.4439 214.854 59.5894C215.515 59.6076 216.164 59.6319 216.807 59.6561C217.668 59.6925 218.511 59.7289 219.348 59.7653C219.348 59.7653 219.348 59.7653 219.354 59.7653C219.573 59.7774 219.797 59.7896 220.015 59.8017C220.585 59.826 221.149 59.8563 221.707 59.8866C236.039 60.6872 245.864 62.3126 245.864 64.1988Z" fill="black"/>
<path opacity="0.4" d="M245.864 64.1945C245.864 66.1717 235.05 67.8699 219.56 68.6159C219.148 68.6341 218.736 68.6523 218.317 68.6765C217.765 68.6947 217.207 68.719 216.643 68.7432C214.32 68.8342 211.906 68.9009 209.42 68.9555C209.05 68.9555 208.68 68.9616 208.304 68.9737C208.092 68.9737 207.879 68.9798 207.667 68.9798C205.757 69.0101 203.804 69.0222 201.82 69.0222C198.23 69.0222 194.742 68.9737 191.401 68.8888C190.582 68.8645 189.769 68.8403 188.969 68.81C182.873 68.6098 177.342 68.2641 172.684 67.8153C163.544 66.9298 157.776 65.638 157.776 64.1945C157.776 63.5516 158.923 62.933 161.003 62.375C163.587 63.0725 167.62 63.685 172.684 64.1763C177.342 64.6251 182.873 64.9708 188.969 65.171C189.769 65.2013 190.582 65.2255 191.401 65.2498C194.742 65.3347 198.23 65.3832 201.82 65.3832C203.804 65.3832 205.757 65.3711 207.667 65.3408C207.879 65.3408 208.092 65.3347 208.304 65.3347C208.68 65.3226 209.05 65.3165 209.42 65.3165C211.906 65.2619 214.32 65.1952 216.643 65.1042C217.207 65.08 217.765 65.0557 218.317 65.0375C218.736 65.0133 219.148 64.9951 219.56 64.9769C230.01 64.4735 238.326 63.5395 242.638 62.375C244.718 62.939 245.864 63.5455 245.864 64.1945Z" fill="white"/>
<path d="M198.891 59.3789C198.848 60.0824 198.587 60.7739 198.114 61.35C197.611 61.9505 197.18 62.4175 196.689 62.9209C196.398 63.218 196.107 63.5152 195.809 63.7942C195.615 63.9944 195.415 64.1824 195.215 64.3643C194.202 65.2983 193.129 66.1778 191.964 67.0087C191.898 67.0572 191.831 67.0996 191.764 67.1482C191.588 67.2695 191.412 67.3847 191.237 67.4999C190.527 67.9669 189.781 68.4157 188.968 68.81C188.677 68.9555 188.38 69.095 188.071 69.2285C187.361 69.5438 186.457 69.8168 185.833 69.9805C185.153 70.1625 184.504 70.3202 183.861 70.4536C182.958 70.6537 182.066 70.8357 181.175 70.9994C179.519 71.3209 177.869 71.5938 176.207 71.8485C174.794 72.0608 173.381 72.261 171.962 72.4308C170.822 72.5703 169.682 72.6916 168.529 72.7886C168.402 72.8007 168.268 72.7947 168.147 72.7765C167.844 72.734 167.559 72.6127 167.328 72.4308C166.97 72.1457 166.722 71.7212 166.679 71.2299C166.673 71.1511 166.673 71.0722 166.679 70.9994C166.71 70.3141 167.158 69.7076 167.801 69.4832L167.807 69.4771C167.856 69.4589 167.904 69.4407 167.953 69.4286C169.524 68.8646 171.101 68.3308 172.684 67.8153C173.484 67.5545 174.279 67.2937 175.079 67.039C177.499 66.2505 179.937 65.5106 182.291 64.7282C182.879 64.5342 183.461 64.334 184.001 64.1399C184.595 63.9337 184.899 63.776 185.335 63.5274C185.608 63.3697 185.881 63.1938 186.16 63.0058C186.742 62.6176 187.337 62.1688 187.925 61.6775C188.726 61.0165 189.526 60.2887 190.309 59.5305C191.564 59.4941 192.838 59.4638 194.136 59.4396C195.694 59.4092 197.283 59.391 198.891 59.3789Z" fill="#FFBB7D"/>
<path d="M198.964 61.8352C198.922 61.9626 198.874 62.0839 198.825 62.2052C198.776 62.3265 198.722 62.4478 198.661 62.5691C198.607 62.6904 198.546 62.8056 198.479 62.9148C198.413 63.03 198.346 63.1453 198.279 63.2605C198.273 63.2726 198.267 63.2787 198.261 63.2908C198.121 63.5031 197.976 63.7093 197.824 63.9095C197.661 64.1217 197.491 64.3279 197.309 64.522C197.254 64.5827 197.194 64.6494 197.139 64.71C196.872 64.9951 196.593 65.2619 196.302 65.5106C196.205 65.6016 196.102 65.6865 195.999 65.7653C195.962 65.8017 195.92 65.8381 195.883 65.8624C195.877 65.8684 195.871 65.8745 195.859 65.8806V65.8866C194.786 66.7539 193.688 67.4029 192.948 67.7971C192.815 67.8638 192.687 67.9305 192.578 67.9851C192.572 67.9851 192.566 67.9912 192.56 67.9912C192.408 68.07 192.281 68.1307 192.196 68.1731C192.105 68.2095 192.056 68.2338 192.056 68.2338L191.614 67.8456L191.238 67.506L190.389 66.7539L186.161 63.0118L185.84 62.7268C185.84 62.7268 187.138 61.2772 188.897 59.5851C189.364 59.5669 189.837 59.5548 190.31 59.5366C191.565 59.5002 192.839 59.4699 194.137 59.4456C195.695 59.4153 197.284 59.3971 198.892 59.385C199.013 59.385 199.128 59.3789 199.243 59.3789C199.322 60.1552 199.256 60.9801 198.964 61.8352Z" fill="#407BFF"/>
<path opacity="0.7" d="M198.971 61.8352C198.928 61.9626 198.88 62.0839 198.825 62.2052C198.776 62.3265 198.722 62.4478 198.661 62.5691C198.607 62.6904 198.546 62.8056 198.479 62.9148C198.413 63.03 198.346 63.1453 198.279 63.2605C198.273 63.2726 198.267 63.2787 198.261 63.2908C198.121 63.5031 197.976 63.7093 197.824 63.9095C197.661 64.1217 197.491 64.3279 197.309 64.522C197.254 64.5827 197.194 64.6494 197.139 64.71C196.872 64.9951 196.593 65.2619 196.302 65.5106C196.205 65.6016 196.102 65.6865 195.999 65.7653C195.962 65.8017 195.92 65.8381 195.883 65.8624C195.877 65.8745 195.865 65.8806 195.859 65.8866C194.786 66.7539 193.688 67.4029 192.948 67.7971C192.815 67.8638 192.687 67.9305 192.578 67.9851C192.572 67.9851 192.566 67.9912 192.56 67.9912C192.408 68.07 192.281 68.1307 192.196 68.1731C192.105 68.2095 192.056 68.2338 192.056 68.2338L191.614 67.8456L191.238 67.506L190.389 66.7539L186.161 63.0118L185.84 62.7268C185.84 62.7268 187.138 61.2772 188.897 59.5851C189.364 59.5669 189.837 59.5548 190.31 59.5366C191.565 59.5002 192.839 59.4699 194.137 59.4456C195.695 59.4153 197.284 59.3971 198.892 59.385C199.013 59.385 199.128 59.3789 199.243 59.3789C199.25 59.3789 199.25 59.3789 199.25 59.3789C199.328 60.1552 199.262 60.9861 198.971 61.8352Z" fill="white"/>
<path opacity="0.1" d="M195.858 65.8886C193.99 67.3988 192.056 68.2358 192.056 68.2358L190.388 66.7559C191.609 62.7294 194.97 60.1172 194.97 60.1172C195.709 61.5 195.949 64.4391 195.858 65.8886Z" fill="black"/>
<path d="M168.437 69.5085L162.8 68.6484L162.845 73.6333C162.845 73.6333 166.7 74.788 168.742 72.1698L168.437 69.5085Z" fill="#FFBB7D"/>
<path d="M158.97 69.9912L159.893 73.6994L162.845 73.6333L162.8 68.6484L158.97 69.9912Z" fill="#FFBB7D"/>
<path d="M219.348 59.7653C219.3 59.8927 219.245 60.02 219.197 60.1535C219.051 60.5234 218.912 60.8995 218.778 61.2755C218.693 61.506 218.614 61.7364 218.536 61.973C218.451 62.2095 218.372 62.446 218.299 62.6826C218.075 63.3861 217.856 64.0957 217.644 64.8175C217.638 64.8538 217.626 64.8963 217.614 64.9327C217.388 65.7339 217.182 66.5514 216.978 67.369C216.969 67.4017 216.961 67.4351 216.953 67.4678C216.85 67.8924 216.74 68.3169 216.643 68.7476C216.595 68.9416 216.552 69.1297 216.51 69.3237C216.346 70.0697 216.188 70.8218 216.043 71.5678C216.043 71.5738 216.043 71.5738 216.037 71.5738C215.982 71.8528 215.928 72.1318 215.879 72.4047C215.818 72.6959 215.764 72.987 215.715 73.272C215.703 73.3327 215.691 73.3933 215.685 73.454C215.655 73.6117 215.624 73.7694 215.6 73.9271C215.521 74.3698 215.449 74.8065 215.376 75.2371C215.364 75.3038 215.358 75.3645 215.345 75.4312C215.321 75.5828 215.297 75.7344 215.273 75.8861C215.127 76.7715 215 77.6388 214.884 78.4819C214.872 78.5304 214.866 78.5789 214.86 78.6274C214.733 79.5554 214.624 80.453 214.527 81.3142C214.484 81.672 214.442 82.0238 214.405 82.3695C214.351 82.8547 214.302 83.3217 214.26 83.7766C214.223 84.1102 214.193 84.4377 214.163 84.7531C214.132 85.0502 214.108 85.3414 214.084 85.6204C214.06 85.9054 214.035 86.1783 214.011 86.4391C213.95 87.1791 213.902 87.8462 213.859 88.4224C213.841 88.6771 213.829 88.9076 213.811 89.1259C213.762 89.9326 213.738 90.4966 213.726 90.7513C213.72 90.8544 213.72 90.909 213.72 90.909L202.967 89.9204L202.809 89.9083L201.002 89.7385L198.266 89.4838H198.26L194.973 89.1805L194.179 89.1077L190.157 88.7378C190.139 88.3557 190.121 87.9857 190.115 87.6097V87.5975C190.109 87.4944 190.103 87.3913 190.103 87.2882C189.988 83.9767 190.048 80.9382 190.224 78.1665C190.321 76.7291 190.449 75.3584 190.6 74.0605C190.819 72.1925 191.092 70.4761 191.401 68.8931C191.468 68.5353 191.54 68.1835 191.613 67.8439V67.8378C191.662 67.6013 191.71 67.3769 191.765 67.1525C192.232 65.0904 192.747 63.3012 193.269 61.7668V61.7607C193.56 60.9116 193.851 60.1413 194.136 59.4439C195.695 59.4135 197.284 59.3953 198.891 59.3832C199.012 59.3832 199.128 59.3772 199.243 59.3772C199.249 59.3772 199.249 59.3772 199.249 59.3772C200.098 59.3711 200.959 59.3711 201.82 59.3711C206.357 59.3711 210.736 59.4439 214.854 59.5894C215.515 59.6076 216.164 59.6319 216.807 59.6561C217.668 59.6925 218.511 59.7289 219.348 59.7653Z" fill="#407BFF"/>
<path d="M219.348 59.7653C219.3 59.8927 219.245 60.02 219.197 60.1535C219.051 60.5234 218.912 60.8995 218.778 61.2755C218.693 61.506 218.614 61.7364 218.536 61.973C218.451 62.2095 218.372 62.446 218.299 62.6826C218.293 62.6947 218.287 62.7129 218.281 62.725C218.056 63.4164 217.85 64.1078 217.644 64.8175C217.638 64.8538 217.626 64.8963 217.614 64.9327C217.323 65.9637 217.05 67.013 216.795 68.0683C216.74 68.2927 216.692 68.5232 216.643 68.7476C216.595 68.9416 216.552 69.1297 216.51 69.3237C216.346 70.0697 216.188 70.8218 216.043 71.5678C215.982 71.8468 215.928 72.1258 215.879 72.4047C215.825 72.6898 215.77 72.9809 215.721 73.266C215.703 73.3266 215.697 73.3933 215.685 73.454C215.655 73.6117 215.624 73.7694 215.6 73.9271C215.521 74.3698 215.449 74.8065 215.376 75.2371C215.364 75.3038 215.358 75.3645 215.345 75.4312C215.321 75.5828 215.297 75.7344 215.273 75.8861C215.133 76.7715 215 77.6388 214.884 78.4819C214.872 78.5304 214.866 78.5789 214.86 78.6274C214.733 79.5554 214.624 80.453 214.527 81.3142C214.484 81.672 214.442 82.0238 214.405 82.3695C214.351 82.8547 214.302 83.3217 214.26 83.7766C214.223 84.1102 214.193 84.4377 214.163 84.7531C214.132 85.0502 214.108 85.3414 214.084 85.6204C214.06 85.9054 214.035 86.1783 214.011 86.4391C213.95 87.1791 213.902 87.8462 213.859 88.4224C213.841 88.6771 213.829 88.9076 213.811 89.1259C213.762 89.9326 213.738 90.4966 213.726 90.7513C213.72 90.8544 213.72 90.909 213.72 90.909L202.967 89.9204L202.809 89.9083L201.002 89.7385L198.266 89.4838H198.26L194.973 89.1805L194.179 89.1077L190.157 88.7378C190.139 88.3557 190.121 87.9857 190.115 87.6097V87.5975C190.109 87.4944 190.103 87.3913 190.103 87.2882C189.988 83.9767 190.048 80.9382 190.224 78.1665C190.321 76.7291 190.449 75.3584 190.6 74.0605C190.819 72.1925 191.092 70.4761 191.401 68.8931C191.468 68.5353 191.54 68.1835 191.613 67.8439V67.8378C191.662 67.6013 191.71 67.3769 191.765 67.1525C192.232 65.0904 192.747 63.3012 193.269 61.7668V61.7607C193.56 60.9116 193.851 60.1413 194.136 59.4439C195.695 59.4135 197.284 59.3953 198.891 59.3832C199.012 59.3832 199.128 59.3772 199.243 59.3772C199.249 59.3772 199.249 59.3772 199.249 59.3772C200.098 59.3711 200.959 59.3711 201.82 59.3711C206.357 59.3711 210.736 59.4439 214.854 59.5894C215.515 59.6076 216.164 59.6319 216.807 59.6561C217.668 59.6925 218.511 59.7289 219.348 59.7653Z" fill="#96B1FC"/>
<path d="M161.292 140.268C161.292 140.268 168.884 137.135 169.133 133.991C169.157 133.682 169.39 133.454 169.718 133.474L175.509 133.828C175.779 133.844 176.033 134.024 176.142 134.274L178.46 139.628L176.856 139.848L176.177 139.116L175.59 140.021C166.884 141.212 163.109 141.634 161.312 141.327C160.956 140.592 161.292 140.268 161.292 140.268Z" fill="black"/>
<path d="M196.823 108.763C196.489 108.691 196.306 108.64 196.306 108.64L169.008 105.228L177.124 134.13L168.858 134.917C168.858 134.917 150.007 98.5573 157.713 93.311C165.418 88.0648 189.297 93.8587 189.297 93.8587L190.236 86.6602L213.985 88.4287C217.81 112.162 200.102 109.454 196.823 108.763Z" fill="black"/>
<path d="M188.96 192.256C188.96 192.256 197.136 191.473 198.291 188.538C198.405 188.25 198.694 188.099 199.002 188.215L204.438 190.242C204.691 190.336 204.882 190.582 204.913 190.854L205.569 196.65L203.971 196.393L203.535 195.495L202.71 196.19C194.035 194.79 190.301 194.093 188.671 193.275C188.546 192.467 188.96 192.256 188.96 192.256Z" fill="black"/>
<path d="M214.234 97.0333C214.234 97.0333 214.234 97.0333 214.234 97.0394C214.201 97.1844 213.214 101.736 211.918 108.252C211.848 108.625 211.772 109.009 211.697 109.394C211.09 112.494 210.425 115.978 209.769 119.614C208.964 124.037 208.174 128.682 207.506 133.121C206.544 139.54 205.84 145.528 205.741 149.807C205.422 163.855 204.839 191.585 204.839 191.585L197.272 190.396C197.272 190.396 193.092 160.826 193.142 146.502C193.177 137.4 195.436 118.662 196.973 107.005C197.754 101.022 198.346 96.9023 198.346 96.9023L206.915 96.9763L214.234 97.0333Z" fill="black"/>
<path d="M213.635 90.74L214.138 90.7788L214.119 89.14L213.672 89.1055L213.635 90.74Z" fill="#263238"/>
<path d="M194.97 89.2949L205.099 90.0821L205.145 88.4518L195.055 87.6719L194.97 89.2949Z" fill="#263238"/>
<path d="M194.273 87.6085L189.99 87.2773L189.837 88.8931L194.173 89.2297L194.273 87.6085Z" fill="#263238"/>
<path d="M212.89 89.0458L205.924 88.5078L205.895 90.1393L212.837 90.6791L212.89 89.0458Z" fill="#263238"/>
<g opacity="0.2">
<path d="M213.635 90.74L214.138 90.7788L214.119 89.14L213.672 89.1055L213.635 90.74Z" fill="white"/>
<path d="M194.97 89.2949L205.099 90.0821L205.145 88.4518L195.055 87.6719L194.97 89.2949Z" fill="white"/>
<path d="M194.273 87.6085L189.99 87.2773L189.837 88.8931L194.173 89.2297L194.273 87.6085Z" fill="white"/>
<path d="M212.89 89.0458L205.924 88.5078L205.895 90.1393L212.837 90.6791L212.89 89.0458Z" fill="white"/>
</g>
<path d="M198.137 88.2133L198.098 89.2031C198.092 89.3602 198.209 89.4948 198.366 89.51L200.892 89.7459C201.063 89.7617 201.212 89.6294 201.216 89.4578L201.24 88.4268C201.244 88.2697 201.124 88.1369 200.967 88.1247L198.456 87.9306C198.289 87.9173 198.144 88.0459 198.137 88.2133Z" stroke="white" stroke-width="0.36295" stroke-miterlimit="10"/>
<path d="M200.111 88.8359L200.882 88.9093" stroke="white" stroke-width="0.36295" stroke-miterlimit="10" stroke-linecap="round" stroke-linejoin="round"/>
<path opacity="0.1" d="M217.613 64.9325C217.322 65.9636 217.049 67.0128 216.794 68.0681C216.697 68.4866 216.6 68.9051 216.509 69.3236C216.054 71.3796 215.666 73.4417 215.345 75.431C215.321 75.5826 215.296 75.7343 215.272 75.8859C211.105 77.2262 206.775 76.3044 206.921 72.2893C207.121 66.9097 211.706 64.3927 211.706 64.3927C213.719 63.2889 215.891 63.7377 217.613 64.9325Z" fill="black"/>
<path d="M176.853 218.99H182.463L164.221 74.8242H158.611L176.853 218.99Z" fill="#263238"/>
<path opacity="0.4" d="M176.853 218.99H182.463L164.221 74.8242H158.611L176.853 218.99Z" fill="white"/>
<path d="M165.126 96.1992H182.958C183.382 96.1992 183.772 95.9221 183.985 95.4708L185.118 93.0703H162.966L164.099 95.4708C164.312 95.9215 164.703 96.1992 165.126 96.1992Z" fill="#263238"/>
<path opacity="0.4" d="M165.126 96.1992H182.958C183.382 96.1992 183.772 95.9221 183.985 95.4708L185.118 93.0703H162.966L164.099 95.4708C164.312 95.9215 164.703 96.1992 165.126 96.1992Z" fill="white"/>
<path d="M163.268 94.2092H184.817C185.458 94.2092 185.977 93.6901 185.977 93.049V92.793C185.977 92.1526 185.458 91.6328 184.817 91.6328H163.268C162.627 91.6328 162.107 92.152 162.107 92.793V93.049C162.108 93.6901 162.627 94.2092 163.268 94.2092Z" fill="#263238"/>
<path opacity="0.1" d="M163.268 94.2092H184.817C185.458 94.2092 185.977 93.6901 185.977 93.049V92.793C185.977 92.1526 185.458 91.6328 184.817 91.6328H163.268C162.627 91.6328 162.107 92.152 162.107 92.793V93.049C162.108 93.6901 162.627 94.2092 163.268 94.2092Z" fill="white"/>
<path d="M168.378 116.805H186.211C186.635 116.805 187.026 116.528 187.238 116.076L188.371 113.676H166.219L167.352 116.076C167.565 116.528 167.956 116.805 168.378 116.805Z" fill="#263238"/>
<path opacity="0.4" d="M168.378 116.805H186.211C186.635 116.805 187.026 116.528 187.238 116.076L188.371 113.676H166.219L167.352 116.076C167.565 116.528 167.956 116.805 168.378 116.805Z" fill="white"/>
<path d="M166.52 114.815H188.069C188.71 114.815 189.23 114.296 189.23 113.654V113.399C189.23 112.758 188.711 112.238 188.069 112.238H166.52C165.88 112.238 165.36 112.757 165.36 113.399V113.654C165.36 114.295 165.88 114.815 166.52 114.815Z" fill="#263238"/>
<path opacity="0.1" d="M166.52 114.815H188.069C188.71 114.815 189.23 114.296 189.23 113.654V113.399C189.23 112.758 188.711 112.238 188.069 112.238H166.52C165.88 112.238 165.36 112.757 165.36 113.399V113.654C165.36 114.295 165.88 114.815 166.52 114.815Z" fill="white"/>
<path d="M171.632 144.086H189.465C189.889 144.086 190.279 143.809 190.492 143.358L191.625 140.957H169.473L170.606 143.358C170.818 143.809 171.21 144.086 171.632 144.086Z" fill="#263238"/>
<path opacity="0.4" d="M171.632 144.086H189.465C189.889 144.086 190.279 143.809 190.492 143.358L191.625 140.957H169.473L170.606 143.358C170.818 143.809 171.21 144.086 171.632 144.086Z" fill="white"/>
<path d="M169.774 142.096H191.323C191.963 142.096 192.483 141.577 192.483 140.936V140.68C192.483 140.039 191.964 139.52 191.323 139.52H169.774C169.133 139.52 168.613 140.039 168.613 140.68V140.936C168.613 141.577 169.133 142.096 169.774 142.096Z" fill="#263238"/>
<path opacity="0.1" d="M169.774 142.096H191.323C191.963 142.096 192.483 141.577 192.483 140.936V140.68C192.483 140.039 191.964 139.52 191.323 139.52H169.774C169.133 139.52 168.613 140.039 168.613 140.68V140.936C168.613 141.577 169.133 142.096 169.774 142.096Z" fill="white"/>
<path d="M174.883 171.371H192.716C193.14 171.371 193.53 171.094 193.743 170.643L194.876 168.242H172.724L173.857 170.643C174.069 171.094 174.461 171.371 174.883 171.371Z" fill="#263238"/>
<path opacity="0.4" d="M174.883 171.371H192.716C193.14 171.371 193.53 171.094 193.743 170.643L194.876 168.242H172.724L173.857 170.643C174.069 171.094 174.461 171.371 174.883 171.371Z" fill="white"/>
<path d="M173.025 169.381H194.575C195.215 169.381 195.735 168.862 195.735 168.221V167.965C195.735 167.324 195.216 166.805 194.575 166.805H173.025C172.385 166.805 171.865 167.324 171.865 167.965V168.221C171.865 168.862 172.385 169.381 173.025 169.381Z" fill="#263238"/>
<path opacity="0.1" d="M173.025 169.381H194.575C195.215 169.381 195.735 168.862 195.735 168.221V167.965C195.735 167.324 195.216 166.805 194.575 166.805H173.025C172.385 166.805 171.865 167.324 171.865 167.965V168.221C171.865 168.862 172.385 169.381 173.025 169.381Z" fill="white"/>
<path d="M178.136 198.648H195.969C196.393 198.648 196.783 198.371 196.996 197.92L198.129 195.52H175.977L177.11 197.92C177.322 198.371 177.713 198.648 178.136 198.648Z" fill="#263238"/>
<path opacity="0.4" d="M178.136 198.648H195.969C196.393 198.648 196.783 198.371 196.996 197.92L198.129 195.52H175.977L177.11 197.92C177.322 198.371 177.713 198.648 178.136 198.648Z" fill="white"/>
<path d="M176.278 196.658H197.828C198.468 196.658 198.988 196.139 198.988 195.498V195.242C198.988 194.602 198.469 194.082 197.828 194.082H176.278C175.638 194.082 175.118 194.601 175.118 195.242V195.498C175.118 196.139 175.637 196.658 176.278 196.658Z" fill="#263238"/>
<path opacity="0.1" d="M176.278 196.658H197.828C198.468 196.658 198.988 196.139 198.988 195.498V195.242C198.988 194.602 198.469 194.082 197.828 194.082H176.278C175.638 194.082 175.118 194.601 175.118 195.242V195.498C175.118 196.139 175.637 196.658 176.278 196.658Z" fill="white"/>
<path d="M198.509 218.99H204.119L185.878 74.8242H180.268L198.509 218.99Z" fill="#263238"/>
<path opacity="0.7" d="M198.509 218.99H204.119L185.878 74.8242H180.268L198.509 218.99Z" fill="white"/>
<path d="M139.613 218.982H134.003L152.245 74.8164H157.854L139.613 218.982Z" fill="#263238"/>
<path opacity="0.4" d="M139.613 218.982H134.003L152.245 74.8164H157.854L139.613 218.982Z" fill="white"/>
<path d="M172.996 96.1914H155.163C154.739 96.1914 154.349 95.9143 154.136 95.463L153.003 93.0625H175.155L174.022 95.463C173.81 95.9137 173.419 96.1914 172.996 96.1914Z" fill="#263238"/>
<path opacity="0.5" d="M172.996 96.1914H155.163C154.739 96.1914 154.349 95.9143 154.136 95.463L153.003 93.0625H175.155L174.022 95.463C173.81 95.9137 173.419 96.1914 172.996 96.1914Z" fill="white"/>
<path d="M174.854 94.2014H153.305C152.664 94.2014 152.145 93.6822 152.145 93.0412V92.7852C152.145 92.1448 152.664 91.625 153.305 91.625H174.854C175.495 91.625 176.015 92.1442 176.015 92.7852V93.0412C176.015 93.6822 175.495 94.2014 174.854 94.2014Z" fill="#263238"/>
<path opacity="0.2" d="M174.854 94.2014H153.305C152.664 94.2014 152.145 93.6822 152.145 93.0412V92.7852C152.145 92.1448 152.664 91.625 153.305 91.625H174.854C175.495 91.625 176.015 92.1442 176.015 92.7852V93.0412C176.015 93.6822 175.495 94.2014 174.854 94.2014Z" fill="white"/>
<path d="M169.744 116.801H151.911C151.487 116.801 151.097 116.524 150.884 116.072L149.751 113.672H171.903L170.77 116.072C170.558 116.524 170.167 116.801 169.744 116.801Z" fill="#263238"/>
<path opacity="0.5" d="M169.744 116.801H151.911C151.487 116.801 151.097 116.524 150.884 116.072L149.751 113.672H171.903L170.77 116.072C170.558 116.524 170.167 116.801 169.744 116.801Z" fill="white"/>
<path d="M171.602 114.811H150.053C149.412 114.811 148.893 114.292 148.893 113.651V113.395C148.893 112.754 149.412 112.234 150.053 112.234H171.602C172.242 112.234 172.762 112.754 172.762 113.395V113.651C172.762 114.291 172.243 114.811 171.602 114.811Z" fill="#263238"/>
<path opacity="0.2" d="M171.602 114.811H150.053C149.412 114.811 148.893 114.292 148.893 113.651V113.395C148.893 112.754 149.412 112.234 150.053 112.234H171.602C172.242 112.234 172.762 112.754 172.762 113.395V113.651C172.762 114.291 172.243 114.811 171.602 114.811Z" fill="white"/>
<path d="M166.491 144.078H148.658C148.234 144.078 147.844 143.801 147.631 143.35L146.498 140.949H168.65L167.517 143.35C167.305 143.801 166.914 144.078 166.491 144.078Z" fill="#263238"/>
<path opacity="0.5" d="M166.491 144.078H148.658C148.234 144.078 147.844 143.801 147.631 143.35L146.498 140.949H168.65L167.517 143.35C167.305 143.801 166.914 144.078 166.491 144.078Z" fill="white"/>
<path d="M168.349 142.088H146.8C146.159 142.088 145.64 141.569 145.64 140.928V140.672C145.64 140.031 146.159 139.512 146.8 139.512H168.349C168.99 139.512 169.51 140.031 169.51 140.672V140.928C169.509 141.569 168.99 142.088 168.349 142.088Z" fill="#263238"/>
<path opacity="0.2" d="M168.349 142.088H146.8C146.159 142.088 145.64 141.569 145.64 140.928V140.672C145.64 140.031 146.159 139.512 146.8 139.512H168.349C168.99 139.512 169.51 140.031 169.51 140.672V140.928C169.509 141.569 168.99 142.088 168.349 142.088Z" fill="white"/>
<path d="M163.238 171.355H145.405C144.982 171.355 144.591 171.078 144.378 170.627L143.245 168.227H165.398L164.265 170.627C164.052 171.078 163.66 171.355 163.238 171.355Z" fill="#263238"/>
<path opacity="0.5" d="M163.238 171.355H145.405C144.982 171.355 144.591 171.078 144.378 170.627L143.245 168.227H165.398L164.265 170.627C164.052 171.078 163.66 171.355 163.238 171.355Z" fill="white"/>
<path d="M165.096 169.365H143.547C142.906 169.365 142.387 168.846 142.387 168.205V167.949C142.387 167.309 142.906 166.789 143.547 166.789H165.096C165.737 166.789 166.257 167.308 166.257 167.949V168.205C166.256 168.846 165.737 169.365 165.096 169.365Z" fill="#263238"/>
<path opacity="0.2" d="M165.096 169.365H143.547C142.906 169.365 142.387 168.846 142.387 168.205V167.949C142.387 167.309 142.906 166.789 143.547 166.789H165.096C165.737 166.789 166.257 167.308 166.257 167.949V168.205C166.256 168.846 165.737 169.365 165.096 169.365Z" fill="white"/>
<path d="M159.986 198.641H142.153C141.73 198.641 141.338 198.363 141.126 197.912L139.993 195.512H162.146L161.013 197.912C160.8 198.363 160.409 198.641 159.986 198.641Z" fill="#263238"/>
<path opacity="0.5" d="M159.986 198.641H142.153C141.73 198.641 141.338 198.363 141.126 197.912L139.993 195.512H162.146L161.013 197.912C160.8 198.363 160.409 198.641 159.986 198.641Z" fill="white"/>
<path d="M161.845 196.651H140.295C139.655 196.651 139.135 196.131 139.135 195.49V195.234C139.135 194.594 139.654 194.074 140.295 194.074H161.845C162.485 194.074 163.005 194.593 163.005 195.234V195.49C163.004 196.131 162.485 196.651 161.845 196.651Z" fill="#263238"/>
<path opacity="0.2" d="M161.845 196.651H140.295C139.655 196.651 139.135 196.131 139.135 195.49V195.234C139.135 194.594 139.654 194.074 140.295 194.074H161.845C162.485 194.074 163.005 194.593 163.005 195.234V195.49C163.004 196.131 162.485 196.651 161.845 196.651Z" fill="white"/>
<path d="M161.269 218.982H155.659L173.9 74.8164H179.51L161.269 218.982Z" fill="#263238"/>
<path opacity="0.7" d="M161.269 218.982H155.659L173.9 74.8164H179.51L161.269 218.982Z" fill="white"/>
<path d="M186.776 75.5547H151.225C150.802 75.5547 150.411 75.2775 150.198 74.8263L149.065 72.4258H188.937L187.804 74.8263C187.59 75.2775 187.199 75.5547 186.776 75.5547Z" fill="#263238"/>
<path opacity="0.5" d="M186.776 75.5547H151.225C150.802 75.5547 150.411 75.2775 150.198 74.8263L149.065 72.4258H188.937L187.804 74.8263C187.59 75.2775 187.199 75.5547 186.776 75.5547Z" fill="white"/>
<path d="M188.636 73.5647H149.367C148.727 73.5647 148.207 73.0455 148.207 72.4045V72.1485C148.207 71.5081 148.726 70.9883 149.367 70.9883H188.636C189.276 70.9883 189.796 71.5075 189.796 72.1485V72.4045C189.796 73.0449 189.276 73.5647 188.636 73.5647Z" fill="#263238"/>
<path opacity="0.2" d="M188.636 73.5647H149.367C148.727 73.5647 148.207 73.0455 148.207 72.4045V72.1485C148.207 71.5081 148.726 70.9883 149.367 70.9883H188.636C189.276 70.9883 189.796 71.5075 189.796 72.1485V72.4045C189.796 73.0449 189.276 73.5647 188.636 73.5647Z" fill="white"/>
<path d="M189.26 74.9555L184.599 71.6719L182.416 76.1533C182.416 76.1533 185.351 78.9068 188.347 77.4736L189.26 74.9555Z" fill="#EBB376"/>
<path d="M180.572 71.1602L179.745 74.8901L182.416 76.148L184.6 71.6666L180.572 71.1602Z" fill="#EBB376"/>
<path d="M221.143 64.5892C220.227 66.0024 219.293 67.3549 218.317 68.6771C217.583 69.6535 216.831 70.6178 216.043 71.564C216.043 71.57 216.043 71.5701 216.037 71.5701C215.8 71.8612 215.557 72.1462 215.315 72.4313C214.836 72.9832 214.35 73.5351 213.841 74.081C213.21 74.7602 212.549 75.4274 211.84 76.0824C211.706 76.2037 211.573 76.325 211.433 76.4463H211.421C210.899 76.9254 210.366 77.3742 209.753 77.8231C208.971 78.375 208.146 78.9329 206.933 79.3939C206.63 79.5152 206.326 79.6001 206.017 79.6729C205.72 79.7457 205.465 79.782 205.192 79.8306C204.683 79.8973 204.204 79.9397 203.743 79.9519C202.827 79.9822 201.972 79.9579 201.129 79.9094C199.455 79.8184 197.842 79.594 196.246 79.3575C194.209 79.0361 192.207 78.6358 190.224 78.1627C189.49 77.9929 188.762 77.8049 188.034 77.6108C187.646 77.5077 187.264 77.3985 186.876 77.2893C186.094 77.071 185.596 76.3371 185.645 75.5547C185.651 75.4334 185.675 75.3122 185.705 75.1909C185.887 74.5237 186.445 74.0628 187.088 73.9718C187.191 73.9536 187.295 73.9415 187.398 73.9475L187.428 73.9536C187.567 73.9597 187.713 73.9657 187.853 73.9657C188.768 73.996 189.684 74.0324 190.6 74.0567C192.644 74.1295 194.682 74.1841 196.689 74.2144C198.212 74.2447 199.734 74.2265 201.183 74.1659C201.911 74.1355 202.621 74.0749 203.264 73.9839C203.9 73.899 204.501 73.7656 204.659 73.6382C204.901 73.5169 205.38 73.1833 205.835 72.7831C206.199 72.4677 206.581 72.1159 206.957 71.7338C207.066 71.6307 207.17 71.5215 207.273 71.4124C207.485 71.194 207.691 70.9636 207.891 70.7331C208.413 70.163 208.916 69.5686 209.42 68.956C209.644 68.6771 209.874 68.3981 210.099 68.113C211.191 66.7363 212.276 65.2867 213.325 63.8251C214.041 62.8365 214.745 61.8357 215.424 60.8532L215.46 60.7926C215.812 60.2831 216.279 59.8949 216.807 59.6523C217.668 59.6887 218.511 59.7251 219.348 59.7615C219.348 59.7615 219.348 59.7615 219.354 59.7615C219.572 59.7736 219.797 59.7858 220.015 59.7979C220.082 59.8343 220.149 59.8768 220.215 59.9253C221.738 60.9745 222.138 63.0487 221.143 64.5892Z" fill="#FFB573"/>
<path d="M219.561 68.6128C218.615 70.0138 217.353 71.5604 215.722 73.2586C215.716 73.2586 215.716 73.2586 215.716 73.2647C215.34 73.6528 214.939 74.0531 214.521 74.4595L213.842 74.0774L207.892 70.7295L207.34 70.4202C207.34 70.4202 207.728 69.844 208.304 68.9706C209.026 67.8789 210.051 66.3202 211.003 64.8525C211.743 63.7002 212.434 62.6024 212.889 61.8261C213.465 60.8557 214.145 60.1279 214.854 59.582C215.515 59.6002 216.164 59.6245 216.807 59.6487C217.669 59.6851 218.512 59.7215 219.349 59.7579C219.349 59.7579 219.349 59.7579 219.355 59.7579C219.573 59.7701 219.797 59.7822 220.016 59.7943C220.586 59.8186 221.15 59.8489 221.708 59.8792C222.472 61.6927 222.302 64.5614 219.561 68.6128Z" fill="#407BFF"/>
<path opacity="0.7" d="M219.561 68.6128C218.615 70.0138 217.353 71.5604 215.722 73.2586C215.716 73.2586 215.716 73.2586 215.716 73.2647C215.34 73.6528 214.939 74.0531 214.521 74.4595L213.842 74.0774L207.892 70.7295L207.34 70.4202C207.34 70.4202 207.728 69.844 208.304 68.9706C209.026 67.8789 210.051 66.3202 211.003 64.8525C211.743 63.7002 212.434 62.6024 212.889 61.8261C213.465 60.8557 214.145 60.1279 214.854 59.582C215.515 59.6002 216.164 59.6245 216.807 59.6487C217.669 59.6851 218.512 59.7215 219.349 59.7579C219.349 59.7579 219.349 59.7579 219.355 59.7579C219.573 59.7701 219.797 59.7822 220.016 59.7943C220.586 59.8186 221.15 59.8489 221.708 59.8792C222.472 61.6927 222.302 64.5614 219.561 68.6128Z" fill="white"/>
<path d="M130.868 218.875C130.868 218.911 130.862 218.941 130.856 218.978C130.856 218.996 130.85 219.008 130.844 219.026C130.838 219.057 130.826 219.087 130.814 219.117C130.795 219.154 130.777 219.196 130.747 219.232C130.723 219.275 130.692 219.311 130.656 219.354C130.462 219.572 130.122 219.79 129.661 220.003C129.57 220.045 129.467 220.088 129.364 220.13C129.073 220.251 128.745 220.367 128.375 220.482C128.145 220.555 127.902 220.621 127.642 220.694C123.39 221.84 115.239 222.762 104.983 223.272C104.583 223.29 104.182 223.314 103.782 223.332C103.127 223.363 102.466 223.387 101.793 223.417C101.119 223.442 100.44 223.466 99.7487 223.49C99.2817 223.508 98.8087 223.52 98.3356 223.539C97.2136 223.569 96.0794 223.599 94.9271 223.617C94.7876 223.624 94.6481 223.63 94.5086 223.63C94.2478 223.636 93.987 223.642 93.7262 223.642C93.4715 223.648 93.2228 223.654 92.9681 223.654C91.9067 223.672 90.8332 223.684 89.7536 223.69C89.6323 223.69 89.5171 223.696 89.4019 223.696C89.3958 223.696 89.3958 223.696 89.3958 223.696C88.5467 223.702 87.6855 223.702 86.8242 223.702C83.2823 223.702 79.8313 223.66 76.5319 223.569C76.5259 223.569 76.5259 223.569 76.5259 223.569C76.0346 223.557 75.5434 223.539 75.0582 223.52C74.6336 223.514 74.2091 223.496 73.7906 223.484C73.1295 223.466 72.4805 223.442 71.8376 223.417C70.9764 223.381 70.1334 223.345 69.2964 223.308C69.2964 223.308 69.2964 223.308 69.2903 223.308C69.072 223.296 68.8476 223.284 68.6293 223.272C68.0591 223.247 67.4951 223.217 66.9371 223.187C64.1533 223.029 61.5393 222.847 59.1376 222.629C53.3879 222.119 48.8331 221.458 46.0068 220.694C45.9219 220.67 45.8431 220.652 45.7643 220.627C45.6733 220.603 45.5823 220.579 45.4974 220.549C45.0425 220.415 44.6483 220.276 44.3026 220.142C44.1752 220.088 44.0539 220.039 43.9448 219.984C43.7446 219.887 43.5687 219.796 43.4171 219.699C43.3564 219.663 43.3019 219.627 43.2533 219.584C43.2048 219.548 43.1624 219.517 43.1199 219.481C43.0714 219.439 43.0289 219.396 42.9925 219.354C42.9562 219.317 42.9258 219.275 42.9016 219.239C42.8531 219.166 42.8227 219.099 42.8045 219.026C42.7985 219.008 42.7924 218.984 42.7863 218.96C42.7803 218.929 42.7803 218.905 42.7803 218.875C42.7803 216.897 53.5941 215.199 69.0841 214.453C69.4966 214.435 69.909 214.417 70.3275 214.393C70.8794 214.374 71.4374 214.35 72.0014 214.326C72.8444 214.296 73.6996 214.265 74.573 214.235C75.0278 214.223 75.4948 214.205 75.9618 214.192C77.0353 214.162 78.121 214.138 79.2248 214.114H79.4007C79.71 214.114 80.0254 214.108 80.3408 214.095C80.553 214.095 80.7653 214.089 80.9776 214.089C81.9358 214.071 82.9002 214.065 83.8766 214.059H83.8827C83.9737 214.059 84.0707 214.053 84.1617 214.059H84.1678C85.0472 214.047 85.9327 214.047 86.8242 214.047C90.4147 214.047 93.9021 214.095 97.2439 214.18C98.0627 214.205 98.8754 214.229 99.6759 214.259C100.022 214.271 100.367 214.283 100.707 214.296H100.719C100.749 214.296 100.78 214.296 100.81 214.302C101.192 214.314 101.562 214.326 101.938 214.344C102.187 214.35 102.429 214.362 102.678 214.374C103.327 214.399 103.964 214.429 104.595 214.459H104.601C105.207 214.49 105.808 214.52 106.402 214.55C109.871 214.738 113.086 214.975 115.96 215.254C125.1 216.139 130.868 217.431 130.868 218.875Z" fill="black"/>
<path opacity="0.4" d="M42.7822 218.879C42.7822 216.901 53.5961 215.203 69.0861 214.457C69.4985 214.439 69.9109 214.421 70.3294 214.396C70.8813 214.378 71.4393 214.354 72.0034 214.33C74.3262 214.239 76.7401 214.172 79.2267 214.118C79.5967 214.118 79.9667 214.111 80.3427 214.099C80.555 214.099 80.7673 214.093 80.9795 214.093C82.89 214.063 84.8429 214.051 86.8262 214.051C90.4167 214.051 93.904 214.099 97.2458 214.184C98.0646 214.208 98.8773 214.233 99.6779 214.263C105.773 214.463 111.304 214.809 115.962 215.258C125.102 216.143 130.87 217.435 130.87 218.879C130.87 219.521 129.724 220.14 127.644 220.698C125.06 220.001 121.027 219.388 115.962 218.897C111.304 218.448 105.773 218.102 99.6779 217.902C98.8773 217.872 98.0646 217.847 97.2458 217.823C93.904 217.738 90.4167 217.69 86.8262 217.69C84.8429 217.69 82.89 217.702 80.9795 217.732C80.7673 217.732 80.555 217.738 80.3427 217.738C79.9667 217.75 79.5967 217.756 79.2267 217.756C76.7401 217.811 74.3262 217.878 72.0034 217.969C71.4393 217.993 70.8813 218.017 70.3294 218.035C69.9109 218.06 69.4985 218.078 69.0861 218.096C58.6361 218.6 50.321 219.534 46.0088 220.698C43.9285 220.134 42.7822 219.527 42.7822 218.879Z" fill="white"/>
<path d="M83.1187 216.644C82.7851 217.045 82.4758 217.39 82.1665 217.724C82.0088 217.888 81.8572 218.051 81.6934 218.215C81.4023 218.512 81.1172 218.804 80.82 219.089C80.626 219.283 80.4258 219.471 80.2257 219.659C79.2128 220.593 78.1333 221.478 76.9688 222.303C76.9021 222.345 76.8414 222.394 76.7747 222.436C76.6049 222.558 76.429 222.673 76.247 222.794H76.241C75.8589 223.049 75.4647 223.298 75.0583 223.528C74.6338 223.522 74.2092 223.504 73.7907 223.492C73.1296 223.474 72.4807 223.449 71.8378 223.425C70.9766 223.389 70.1335 223.352 69.2966 223.316C69.2966 223.316 69.2966 223.316 69.2905 223.316C69.0722 223.304 68.8477 223.292 68.6294 223.279C68.0593 223.255 67.4953 223.225 66.9373 223.195C64.1534 223.037 61.5394 222.855 59.1377 222.637C59.4531 222.533 59.7685 222.436 60.0838 222.333C62.5038 221.545 64.948 220.805 67.3012 220.029C67.8895 219.828 68.4717 219.634 69.0115 219.434C69.6059 219.228 69.9091 219.07 70.3458 218.822C70.6127 218.664 70.8917 218.488 71.1706 218.3C71.3162 218.203 71.4678 218.1 71.6195 217.985H71.6255C72.0622 217.675 72.4989 217.33 72.9295 216.972C73.8029 216.256 74.658 215.468 75.5071 214.649C75.6587 214.497 75.8104 214.352 75.962 214.2C76.2349 213.939 76.5018 213.679 76.7626 213.406L77.9513 212.174L78.0241 212.096C78.7943 211.295 79.8618 210.949 80.8868 211.065C81.6024 211.143 82.2999 211.453 82.8579 211.993C83.4523 212.569 83.798 213.303 83.8768 214.067H83.8829C83.986 214.964 83.7312 215.904 83.1187 216.644Z" fill="#FFB573"/>
<path d="M81.7576 209.68C78.3764 209.604 70.8467 218.014 70.8467 218.014L77.0633 223.519C77.0633 223.519 82.6152 221.12 83.975 217.121C85.3341 213.122 81.7576 209.68 81.7576 209.68Z" fill="#407BFF"/>
<path d="M83.9774 217.122C83.4133 218.76 82.1579 220.13 80.866 221.173C78.998 222.684 77.0633 223.521 77.0633 223.521L75.3954 222.041L70.8467 218.014C70.8467 218.014 78.3733 209.601 81.7576 209.68C81.7576 209.68 85.3353 213.125 83.9774 217.122Z" fill="#FF5C2C"/>
<path opacity="0.1" d="M80.8661 221.174C78.9981 222.684 77.0634 223.521 77.0634 223.521L75.3955 222.041C76.617 218.015 79.9776 215.402 79.9776 215.402C80.7175 216.785 80.9571 219.724 80.8661 221.174Z" fill="black"/>
<path d="M105.135 213.221C105.135 213.227 105.135 213.227 105.135 213.233C105.129 213.233 105.129 213.233 105.129 213.233V213.24C105.092 213.318 105.056 213.391 105.026 213.47C104.929 213.682 104.838 213.895 104.747 214.113C104.692 214.228 104.644 214.337 104.601 214.459C104.589 214.483 104.577 214.507 104.571 214.531C104.528 214.622 104.486 214.713 104.456 214.81C104.353 215.053 104.255 215.302 104.158 215.556C104.037 215.872 103.922 216.193 103.807 216.515C103.795 216.527 103.795 216.545 103.788 216.557C103.704 216.788 103.625 217.018 103.546 217.255C103.461 217.491 103.382 217.728 103.309 217.964C103.297 217.988 103.291 218.013 103.285 218.037C103.212 218.255 103.14 218.474 103.073 218.692C102.933 219.153 102.794 219.614 102.66 220.087C102.648 220.129 102.636 220.172 102.624 220.214C102.333 221.245 102.06 222.295 101.805 223.35C101.799 223.374 101.793 223.392 101.793 223.417C101.12 223.441 100.441 223.465 99.7492 223.489C99.2822 223.508 98.8091 223.52 98.3361 223.538C97.214 223.568 96.0799 223.599 94.9275 223.617C94.788 223.623 94.6486 223.629 94.5091 223.629C94.2483 223.635 93.9875 223.641 93.7267 223.641C93.4719 223.647 93.2233 223.653 92.9685 223.653C91.9072 223.671 90.8337 223.683 89.7541 223.69C89.6328 223.69 89.5176 223.696 89.4023 223.696C89.3963 223.696 89.3963 223.696 89.3963 223.696C88.5472 223.702 87.6859 223.702 86.8247 223.702C83.2828 223.702 79.8318 223.659 76.5324 223.568C76.5264 223.568 76.5264 223.568 76.5264 223.568C76.5567 223.417 76.587 223.265 76.6173 223.119V223.113C76.6416 223.016 76.6598 222.925 76.6841 222.834C76.7023 222.743 76.7204 222.652 76.7447 222.561C76.7568 222.513 76.769 222.47 76.775 222.428C77.048 221.233 77.333 220.129 77.6241 219.11C77.7333 218.759 77.8303 218.425 77.9334 218.092C77.9698 217.988 78.0002 217.885 78.0366 217.782V217.776C78.1154 217.527 78.1942 217.291 78.2731 217.06C78.2731 217.054 78.2731 217.054 78.2791 217.054V217.048C78.3216 216.921 78.3641 216.8 78.4065 216.678C78.4065 216.672 78.4065 216.672 78.4065 216.672C78.4732 216.484 78.5399 216.296 78.6067 216.12C78.6794 215.908 78.7583 215.702 78.8311 215.508C78.8978 215.332 78.9645 215.162 79.0312 214.998C79.0312 214.992 79.0312 214.992 79.0312 214.992C79.1586 214.683 79.2799 214.392 79.3951 214.113C79.6741 213.446 79.947 212.863 80.2017 212.348C80.2503 212.263 80.2927 212.172 80.3352 212.087C80.4262 211.911 80.5111 211.754 80.5899 211.596C80.6991 211.402 80.7961 211.22 80.8871 211.056C80.9053 211.026 80.9235 211.002 80.9356 210.971C81.0387 210.783 81.1418 210.613 81.2328 210.468C81.3238 210.322 81.4026 210.201 81.4693 210.092C81.6331 209.849 81.7301 209.71 81.7544 209.679V209.673C81.7544 209.673 81.7544 209.673 81.7605 209.673C81.7605 209.673 84.2835 209.4 87.1765 209.497C87.5586 209.503 87.9467 209.528 88.341 209.552C88.6988 209.576 89.093 209.613 89.5054 209.661C90.3727 209.758 91.3371 209.892 92.3378 210.055C92.9686 210.159 93.6054 210.268 94.2422 210.383C94.879 210.498 95.5098 210.613 96.1163 210.735C96.2254 210.753 96.3286 210.777 96.4377 210.801C96.4438 210.801 96.4438 210.801 96.4438 210.801C96.9229 210.892 97.3899 210.989 97.8205 211.08C98.1177 211.141 98.4088 211.208 98.706 211.281C98.8577 211.317 99.0032 211.347 99.1488 211.39C99.2943 211.426 99.4399 211.462 99.5915 211.499C100.143 211.638 100.689 211.79 101.205 211.936C101.375 211.984 101.544 212.039 101.708 212.087C102.036 212.184 102.351 212.281 102.648 212.378C102.945 212.469 103.218 212.56 103.473 212.645C104.413 212.954 105.038 213.185 105.129 213.215C105.129 213.215 105.135 213.215 105.135 213.221Z" fill="#407BFF"/>
<path d="M105.141 213.221L105.135 213.233C105.129 213.233 105.129 213.233 105.129 213.233V213.24C105.092 213.318 105.056 213.391 105.026 213.47C104.928 213.682 104.831 213.895 104.747 214.113C104.692 214.228 104.643 214.343 104.601 214.459H104.595C104.583 214.483 104.577 214.507 104.571 214.531C104.528 214.622 104.486 214.713 104.455 214.81C104.352 215.053 104.255 215.302 104.158 215.556C104.037 215.872 103.916 216.193 103.806 216.515C103.794 216.527 103.794 216.545 103.788 216.557C103.703 216.788 103.625 217.018 103.546 217.255C103.461 217.491 103.382 217.728 103.309 217.964C103.303 217.976 103.297 217.994 103.291 218.007C103.285 218.019 103.285 218.025 103.285 218.037C103.212 218.255 103.139 218.474 103.073 218.692C102.933 219.153 102.794 219.614 102.66 220.087C102.648 220.129 102.636 220.172 102.624 220.214C102.333 221.245 102.06 222.295 101.805 223.35C101.799 223.374 101.793 223.392 101.793 223.417C101.12 223.441 100.44 223.465 99.749 223.489C99.282 223.508 98.8089 223.52 98.3359 223.538C97.2138 223.568 96.0797 223.599 94.9273 223.617C94.7878 223.623 94.6483 223.629 94.5089 223.629C94.2481 223.635 93.9873 223.641 93.7265 223.641C93.4717 223.647 93.2231 223.653 92.9683 223.653C91.907 223.671 90.8335 223.683 89.7539 223.69C89.6326 223.69 89.5174 223.696 89.4021 223.696C89.3961 223.696 89.3961 223.696 89.3961 223.696C88.547 223.702 87.6857 223.702 86.8245 223.702C83.2825 223.702 79.8316 223.659 76.5322 223.568C76.5626 223.417 76.5929 223.271 76.6232 223.125V223.119C76.6657 222.925 76.702 222.743 76.7445 222.561C76.7566 222.513 76.7688 222.47 76.7748 222.428C77.0477 221.233 77.3328 220.129 77.6239 219.11C77.7331 218.759 77.8301 218.425 77.9332 218.092C77.9696 217.988 78 217.885 78.0363 217.782V217.776C78.1152 217.527 78.194 217.291 78.2729 217.06C78.2729 217.054 78.2729 217.054 78.2789 217.054V217.048C78.3214 216.921 78.3639 216.8 78.4063 216.678C78.4063 216.672 78.4063 216.672 78.4063 216.672C78.473 216.484 78.5397 216.296 78.6065 216.12C78.6792 215.908 78.7581 215.702 78.8309 215.508C78.8976 215.332 78.9643 215.162 79.031 214.998C79.031 214.992 79.031 214.992 79.031 214.992C79.1584 214.683 79.2797 214.392 79.3949 214.113H79.401C79.68 213.446 79.9529 212.863 80.2015 212.348C80.2501 212.263 80.2925 212.172 80.335 212.087C80.4259 211.911 80.5109 211.754 80.5897 211.596C80.6989 211.402 80.7959 211.22 80.8869 211.056C80.9051 211.026 80.9233 211.002 80.9354 210.971C81.0446 210.783 81.1477 210.613 81.2326 210.468C81.3236 210.322 81.4024 210.201 81.4691 210.092C81.6329 209.849 81.7299 209.71 81.7542 209.679C81.7602 209.673 81.7602 209.673 81.7602 209.673C81.7602 209.673 84.2833 209.4 87.1763 209.497C87.5584 209.503 87.9465 209.528 88.3407 209.552C88.6986 209.576 89.0928 209.613 89.5052 209.661C90.3725 209.758 91.3369 209.892 92.3376 210.055C92.9683 210.159 93.6052 210.268 94.242 210.383C94.8788 210.498 95.5096 210.613 96.1161 210.735C96.2252 210.753 96.3283 210.777 96.4375 210.801C96.4436 210.801 96.4436 210.801 96.4436 210.801C96.9227 210.892 97.3897 210.989 97.8203 211.08C98.1175 211.141 98.4086 211.208 98.7058 211.281C98.8574 211.317 99.003 211.347 99.1486 211.39C99.3002 211.42 99.4457 211.456 99.5913 211.493C100.143 211.632 100.689 211.784 101.205 211.936C101.374 211.984 101.544 212.039 101.708 212.087C102.035 212.184 102.351 212.281 102.648 212.378C102.945 212.469 103.218 212.56 103.473 212.645C104.413 212.954 105.038 213.185 105.129 213.215C105.129 213.215 105.135 213.215 105.135 213.221C105.141 213.221 105.141 213.221 105.141 213.221Z" fill="#FF5C2C"/>
<path d="M94.1675 202.266C94.1675 202.266 94.3585 208.716 94.9717 209.674C95.5849 210.632 97.7968 211.076 97.7968 211.076C97.7968 211.076 92.4766 213.721 89.9911 213.226C87.5057 212.733 86.3066 209.479 86.3066 209.479C86.3066 209.479 88.0455 209.549 88.4658 209.309C88.8855 209.069 88.1358 204.8 88.1358 204.8L94.1675 202.266Z" fill="#FFB573"/>
<path opacity="0.2" d="M88.645 206.405C88.645 206.405 88.4278 206.723 88.4278 206.717C88.2944 205.717 88.1367 204.801 88.1367 204.801L94.1653 202.266C94.1653 202.266 94.323 207.463 94.7961 209.222C92.3343 209.478 89.4813 207.67 88.645 206.405Z" fill="black"/>
<path d="M92.1073 191.436C93.7564 192.295 96.1175 195.085 93.5289 196.001C90.941 196.917 89.2731 189.962 92.1073 191.436Z" fill="#263238"/>
<path d="M84.7729 202.168C86.4038 204.002 87.621 205.472 88.8977 206.504C89.9997 207.394 91.1478 207.953 92.6513 208.137C97.5373 208.742 100.645 203.579 98.6896 199.315C98.4755 198.851 98.2226 198.371 97.9266 197.891C95.8027 194.383 91.7088 190.703 87.6562 191.904C83.1129 193.247 81.7416 198.76 84.7729 202.168Z" fill="#FFB573"/>
<path d="M86.7705 201.881L86.967 202.594C86.967 202.594 87.5608 204.707 88.8981 206.504C90.0001 207.394 91.1482 207.953 92.6517 208.137C97.5377 208.741 100.645 203.579 98.69 199.315C98.4759 198.85 98.223 198.371 97.9271 197.891C97.9271 197.891 98.294 199.596 97.9762 200.392C97.9762 200.392 96.1543 199.927 95.2639 200.672C95.2639 200.672 93.331 200.144 91.6935 202.186C91.6935 202.186 89.2347 203.913 86.7705 201.881Z" fill="#263238"/>
<path d="M79.6951 199.892C77.4953 198.046 79.5817 195.372 81.8852 194.46C82.1872 194.341 82.3898 194.165 82.5165 193.961L85.2506 198.163C85.0008 198.282 84.7545 198.395 84.5204 198.485C84.5204 198.485 87.7124 201.316 87.4025 204.129C82.9338 205.363 78.6277 203.068 79.6951 199.892Z" fill="#263238"/>
<path d="M85.7354 206.24C86.7434 206.937 87.9801 207.099 88.9687 206.892C89.0833 206.868 89.1913 206.838 89.2859 206.804L89.2913 206.797C90.212 205.932 87.4827 202.881 87.3432 202.723C87.3366 202.718 87.3366 202.718 87.3366 202.718C86.7173 202.566 86.0926 202.6 85.5814 202.961C84.3811 203.799 84.5812 205.441 85.7354 206.24Z" fill="#FFB573"/>
<path d="M90.9694 198.844C91.1987 199.136 91.5377 199.249 91.7275 199.098C91.9174 198.946 91.8852 198.586 91.6566 198.294C91.4273 198.002 91.0877 197.888 90.8984 198.04C90.7086 198.192 90.7401 198.552 90.9694 198.844Z" fill="#263238"/>
<path d="M94.2504 196.219C94.4797 196.511 94.8187 196.625 95.0086 196.473C95.1984 196.322 95.1663 195.961 94.9376 195.669C94.7084 195.377 94.3687 195.263 94.1795 195.415C93.9897 195.568 94.0218 195.927 94.2504 196.219Z" fill="#263238"/>
<path d="M93.3213 197.191C93.3213 197.191 95.27 198.273 96.6212 198.474C96.472 199.335 95.4258 199.813 95.4258 199.813L93.3213 197.191Z" fill="#DD8B45"/>
<path d="M89.6689 196.586C89.6028 196.623 89.5573 196.694 89.5567 196.777C89.5464 197.755 88.8768 198.199 88.8702 198.203C88.7689 198.269 88.7392 198.405 88.8035 198.506C88.8678 198.607 89.0024 198.636 89.1031 198.572C89.1389 198.549 89.9783 197.991 89.9904 196.779C89.9916 196.657 89.8952 196.559 89.7757 196.559C89.7369 196.559 89.7005 196.569 89.6689 196.586Z" fill="#263238"/>
<path d="M94.7883 193.842C94.8217 193.817 94.8478 193.783 94.8629 193.74C94.903 193.626 94.8447 193.501 94.7313 193.46C93.5984 193.053 92.8008 193.662 92.7614 193.684C92.6662 193.758 92.6474 193.896 92.7202 193.992C92.7923 194.088 92.9276 194.107 93.0228 194.034C93.0549 194.008 93.6754 193.547 94.5845 193.873C94.6561 193.899 94.7319 193.885 94.7883 193.842Z" fill="#263238"/>
<path d="M95.3897 203.805C95.5013 203.762 95.6159 203.706 95.7305 203.649L96.0271 201.259C96.0271 201.259 95.8852 201.254 95.6626 201.266C94.9063 201.286 93.2287 201.433 92.783 202.292C92.7441 202.372 92.7035 202.477 92.6695 202.602C92.5828 202.943 92.5561 203.414 92.7496 203.767C93.0231 204.279 93.7515 204.543 95.3897 203.805Z" fill="#263238"/>
<path d="M92.6699 202.602L95.5854 201.546L95.663 201.266C94.9067 201.286 93.2291 201.433 92.7833 202.292C92.7439 202.371 92.7033 202.477 92.6699 202.602Z" fill="white"/>
<path d="M95.3901 203.804C94.8758 202.958 93.5184 203.393 92.75 203.766C93.0235 204.278 93.7519 204.543 95.3901 203.804Z" fill="#DE5753"/>
<path d="M79.6956 199.894C78.801 199.206 77.4868 197.34 79.2456 195.402C81.0045 193.465 83.0884 192.505 82.1059 191.096C81.1233 189.688 82.8616 188.49 84.0855 189.412C84.0855 189.412 86.9688 184.695 89.0169 188.317C89.0169 188.317 91.0262 186.935 92.2556 188.419C93.485 189.902 93.7458 191.493 92.1258 192.063C90.5059 192.633 90.3518 192.805 90.6326 193.743C90.9134 194.681 89.5052 195.461 89.5052 195.461C89.5052 195.461 90.3761 194.903 89.883 194.231C89.883 194.231 89.7672 195.427 88.1957 195.921C86.6243 196.414 87.3509 197.943 87.3509 197.943C87.3509 197.943 86.5115 198.272 86.3253 197.072C86.3253 197.072 85.6703 199.749 83.9326 200.415C82.1944 201.081 81.0487 200.934 79.6956 199.894Z" fill="#263238"/>
<path opacity="0.1" d="M102.624 220.217C102.333 221.248 102.06 222.297 101.805 223.352C101.799 223.377 101.793 223.395 101.793 223.419C101.12 223.443 100.441 223.468 99.7494 223.492C99.2824 223.51 98.8093 223.522 98.3363 223.54C97.2142 223.571 96.0801 223.601 94.9277 223.619C94.7882 223.625 94.6488 223.631 94.5093 223.631C94.2485 223.637 93.9877 223.643 93.7269 223.643C93.4721 223.649 93.2235 223.656 92.9688 223.656C93.8906 221.891 95.2128 220.732 96.0134 220.144C96.4379 219.829 96.7169 219.677 96.7169 219.677C97.2506 219.386 97.7965 219.204 98.3363 219.113C99.8465 218.864 101.357 219.337 102.624 220.217Z" fill="black"/>
<path d="M106.693 218.217C106.663 218.793 106.487 219.369 106.153 219.885C105.383 221.073 104.6 222.226 103.782 223.342C103.127 223.372 102.466 223.396 101.792 223.427C101.119 223.451 100.44 223.475 99.7484 223.499C99.2814 223.517 98.8084 223.53 98.3353 223.548C97.2133 223.578 96.0791 223.608 94.9268 223.627C94.9935 223.554 95.0481 223.481 95.1087 223.408C96.2004 222.032 97.286 220.582 98.3353 219.12C98.6325 218.714 98.9236 218.302 99.2086 217.889C99.6271 217.307 100.027 216.725 100.428 216.149L100.47 216.088C101.374 214.778 103.03 214.299 104.455 214.82C104.722 214.917 104.983 215.051 105.225 215.221C106.238 215.918 106.753 217.07 106.693 218.217Z" fill="#FF5C2C"/>
<path d="M107.039 218.233C106.845 219.628 106.227 221.302 104.983 223.279C104.583 223.297 104.183 223.322 103.782 223.34C103.127 223.37 102.466 223.394 101.793 223.425C101.12 223.449 100.441 223.473 99.7491 223.498C99.2821 223.516 98.809 223.528 98.336 223.546C97.2139 223.576 96.0798 223.607 94.9274 223.625C94.7879 223.631 94.6484 223.637 94.509 223.637C94.2482 223.643 93.9874 223.649 93.7266 223.649C94.3998 222.63 95.2307 221.357 96.0131 220.15C96.5468 219.313 97.0562 218.512 97.4687 217.833C97.6263 217.578 97.7719 217.336 97.8993 217.123C98.6999 215.771 99.7066 214.885 100.713 214.303H100.719C102.927 213.035 105.129 213.248 105.129 213.248C105.596 213.551 106.051 213.982 106.402 214.558C106.948 215.437 107.258 216.656 107.039 218.233Z" fill="#FF5C2C"/>
<path opacity="0.7" d="M107.039 218.233C106.845 219.628 106.227 221.302 104.983 223.279C104.583 223.297 104.183 223.322 103.782 223.34C103.127 223.37 102.466 223.394 101.793 223.425C101.12 223.449 100.441 223.473 99.7491 223.498C99.2821 223.516 98.809 223.528 98.336 223.546C97.2139 223.576 96.0798 223.607 94.9274 223.625C94.7879 223.631 94.6484 223.637 94.509 223.637C94.2482 223.643 93.9874 223.649 93.7266 223.649C94.3998 222.63 95.2307 221.357 96.0131 220.15C96.5468 219.313 97.0562 218.512 97.4687 217.833C97.6263 217.578 97.7719 217.336 97.8993 217.123C98.6999 215.771 99.7066 214.885 100.713 214.303H100.719C102.927 213.035 105.129 213.248 105.129 213.248C105.596 213.551 106.051 213.982 106.402 214.558C106.948 215.437 107.258 216.656 107.039 218.233Z" fill="#FF5C2C"/>
</svg>
